<!-- Generator: Adobe Illustrator 18.1.1, SVG Export Plug-In  -->
<svg version="1.1"
	 xmlns="http://www.w3.org/2000/svg" xmlns:xlink="http://www.w3.org/1999/xlink" xmlns:a="http://ns.adobe.com/AdobeSVGViewerExtensions/3.0/"
	 x="0px" y="0px" width="353.167px" height="197px" viewBox="0 0 353.167 197" enable-background="new 0 0 353.167 197"
	 xml:space="preserve">
<defs>
</defs>
<g>
	<circle fill="#FFFFFF" cx="254.667" cy="98.5" r="93.5"/>
	<path fill="#50B6EB" d="M254.667,197c-54.313,0-98.5-44.187-98.5-98.5S200.353,0,254.667,0s98.5,44.187,98.5,98.5
		S308.98,197,254.667,197z M254.667,10c-48.799,0-88.5,39.701-88.5,88.5s39.701,88.5,88.5,88.5s88.5-39.701,88.5-88.5
		S303.466,10,254.667,10z"/>
	<g>
		<g>
			<line fill="#50B6EB" x1="254.667" y1="5" x2="254.667" y2="24.5"/>
			<rect x="252.667" y="5" fill="#50B6EB" width="4" height="19.5"/>
		</g>
		<g>
			<line fill="#50B6EB" x1="348.167" y1="98.5" x2="329.667" y2="98.5"/>
			<rect x="329.667" y="96.5" fill="#50B6EB" width="18.5" height="4"/>
		</g>
		<g>
			<line fill="#50B6EB" x1="161.167" y1="98.5" x2="180.167" y2="98.5"/>
			<rect x="161.167" y="96.5" fill="#50B6EB" width="19" height="4"/>
		</g>
		<g>
			<line fill="#50B6EB" x1="254.667" y1="192" x2="254.667" y2="174"/>
			<rect x="252.667" y="174" fill="#50B6EB" width="4" height="18"/>
		</g>
	</g>
	<circle fill="#50B6EB" cx="254.667" cy="98.5" r="10"/>
	
		<rect x="271.166" y="56.867" transform="matrix(0.6402 0.7682 -0.7682 0.6402 161.8137 -181.0165)" fill="#50B6EB" width="6" height="50.767"/>
	
		<rect x="190.87" y="70.5" transform="matrix(0.7338 0.6794 -0.6794 0.7338 110.5503 -135.11)" fill="#50B6EB" width="73.593" height="6"/>
	<g>
		<g>
			<line fill="#50B6EB" x1="206.851" y1="18.466" x2="216.607" y2="35.351"/>
			
				<rect x="201.979" y="24.908" transform="matrix(0.5002 0.8659 -0.8659 0.5002 129.1111 -169.8846)" fill="#50B6EB" width="19.5" height="4"/>
		</g>
		<g>
			<line fill="#50B6EB" x1="334.585" y1="52.651" x2="318.566" y2="61.906"/>
			
				<rect x="324.575" y="48.028" transform="matrix(0.5005 0.8657 -0.8657 0.5005 212.7129 -254.1183)" fill="#50B6EB" width="4" height="18.5"/>
		</g>
		<g>
			<line fill="#50B6EB" x1="172.667" y1="146.2" x2="189.118" y2="136.695"/>
			
				<rect x="178.892" y="131.948" transform="matrix(0.5005 0.8657 -0.8657 0.5005 212.8129 -85.9518)" fill="#50B6EB" width="4" height="19"/>
		</g>
		<g>
			<line fill="#50B6EB" x1="300.4" y1="180.385" x2="291.396" y2="164.799"/>
			
				<rect x="286.898" y="170.592" transform="matrix(0.5002 0.8659 -0.8659 0.5002 297.3296 -169.9598)" fill="#50B6EB" width="18" height="3.999"/>
		</g>
	</g>
	<g>
		<g>
			<line fill="#50B6EB" x1="173.345" y1="52.537" x2="190.305" y2="62.16"/>
			
				<rect x="172.075" y="55.349" transform="matrix(0.8698 0.4935 -0.4935 0.8698 51.9806 -82.2566)" fill="#50B6EB" width="19.501" height="4"/>
		</g>
		<g>
			<line fill="#50B6EB" x1="300.808" y1="17.356" x2="291.678" y2="33.447"/>
			
				<rect x="294.243" y="16.152" transform="matrix(0.8697 0.4937 -0.4937 0.8697 51.1545 -142.9338)" fill="#50B6EB" width="4" height="18.499"/>
		</g>
		<g>
			<line fill="#50B6EB" x1="208.526" y1="180" x2="217.902" y2="163.475"/>
			
				<rect x="211.214" y="162.237" transform="matrix(0.8697 0.4937 -0.4937 0.8697 112.5728 -82.8708)" fill="#50B6EB" width="4" height="19"/>
		</g>
		<g>
			<line fill="#50B6EB" x1="335.989" y1="144.819" x2="320.333" y2="135.936"/>
			
				<rect x="319.161" y="138.378" transform="matrix(0.8698 0.4935 -0.4935 0.8698 112.0118 -143.6557)" fill="#50B6EB" width="18.001" height="4"/>
		</g>
	</g>
	<polygon fill="#50B6EB" points="136.833,53.667 36.833,51.167 140.167,47.667 	"/>
	<polygon fill="#50B6EB" points="129.333,103 0,100.5 129.333,97 	"/>
	<polygon fill="#50B6EB" points="146.833,154.319 25.167,151.819 142.5,148.319 	"/>
</g>
</svg>