<!-- Generator: Adobe Illustrator 18.1.1, SVG Export Plug-In  -->
<svg version="1.1"
	 xmlns="http://www.w3.org/2000/svg" xmlns:xlink="http://www.w3.org/1999/xlink" xmlns:a="http://ns.adobe.com/AdobeSVGViewerExtensions/3.0/"
	 x="0px" y="0px" width="134.539px" height="131.984px" viewBox="0 0 134.539 131.984" enable-background="new 0 0 134.539 131.984"
	 xml:space="preserve">
<defs>
</defs>
<g>
	<path fill="#50B6EB" d="M99.358,118.456c-6.517,0-26.08-0.172-32.589,0.065c-3.879,0.141-5.693-1.671-5.762-5.172
		c-0.138-7.003-0.041-14.013,0.062-21.019c0.149-10.152,3.873-20.306,3.708-30.452c-0.046-2.822-1.693-28.742,8.283-35.452
		c6.46-4.345,20.366-3.156,27.548-2.893c0.911,0.033,19.276,2.609,28.583,16.22c5.497,6.186,5.945,13.656,4.896,21.316
		c-0.58,4.234-1.573,8.436-2.695,12.567c-2.171,7.994,1.015,33.776,0.434,38.776c-0.603,5.193-2.053,6.048-7.179,6.044
		C118.39,118.452,105.614,118.456,99.358,118.456z M119.068,38.368c-1.721-0.914-3.577-2.748-5.298-2.038
		c-1.217,0.503-2.33,3.265-2.131,4.848c0.9,7.192,4.491,13.981,10.32,18.717c1.5,1.219,4.391,2.184,5.89,1.532
		C129.324,60.787,128.849,44.617,119.068,38.368z"/>
	<path fill="#50B6EB" d="M100.09,8.726c1.37,0.096,2.627-0.091,3.661,0.304c4.87,1.86,1.391,6.015,2.275,9.009
		c0.57,1.932-0.487,3.149-2.768,3.101c-6.89-0.147-13.786-0.086-20.667-0.4c-1.021-0.047-2.672-1.581-2.815-2.599
		c-0.392-2.779-0.135-5.65-0.135-8.721c1.785-0.292,3.411-0.558,5.004-0.818c1.472-8.796,1.472-8.796,9.995-8.528
		C99.062,0.212,99.215,0.446,100.09,8.726z"/>
</g>
<g>
	<path fill="#50B6EB" d="M27.364,44.988c0.791-3.21-1.241-4.919-3.252-6.164c-2.286-1.415-4.93-2.293-7.488-3.212
		c-1.511-0.543-2.732-0.421-3.353,1.684c-1.594,5.402-3.569,10.69-5.256,16.067C7.004,56.587,4.964,57.57,0,56.701
		c0.76-2.581,1.442-5.165,2.281-7.698c2.744-8.29,5.471-16.586,8.353-24.828c1.485-4.247,2.935-4.673,7.343-3.398
		c7.673,2.219,15.401,4.247,23.106,6.357c0.363,0.099,0.738,0.18,1.077,0.336c2.259,1.033,5.268,1.526,5.214,4.763
		c-0.05,2.981-2.096,5.203-4.641,6.27c-3.127,1.311-3.822,3.502-3.794,6.604c1.906,0.105,3.58,0.169,3.618,2.825
		c0.038,2.661-0.673,3.709-3.473,3.565c-4.136-0.213-8.291-0.069-12.438-0.053c-1.473,0.006-2.989,0.129-2.738-2.085
		c0.2-1.76-0.922-4.332,2.519-4.133C26.69,45.241,26.963,45.095,27.364,44.988z"/>
	<path fill="#50B6EB" d="M3.475,26.611c-0.089-0.468-0.141-0.568-0.118-0.646c0.75-2.491,0.835-5.778,2.504-7.183
		c1.08-0.909,4.476,0.943,6.837,1.545c5.294,1.35,5.295,1.347,3.898,6.745c-0.925,3.573-0.961,3.697-4.448,2.665
		C9.203,28.865,6.355,27.663,3.475,26.611z"/>
	<path fill="#50B6EB" d="M26.282,53.4h13.726c2.191,0,6.402,1.621,6.694,3.793l7.035,69.833c0.353,2.625-1.688,4.959-4.337,4.959
		H16.217c-2.665,0-4.711-2.362-4.331-5l7.707-69.833C19.904,54.998,24.107,53.4,26.282,53.4z"/>
</g>
</svg>