<!-- Generator: Adobe Illustrator 18.1.1, SVG Export Plug-In  -->
<svg version="1.1"
	 xmlns="http://www.w3.org/2000/svg" xmlns:xlink="http://www.w3.org/1999/xlink" xmlns:a="http://ns.adobe.com/AdobeSVGViewerExtensions/3.0/"
	 x="0px" y="0px" width="124.032px" height="123.962px" viewBox="0 0 124.032 123.962" enable-background="new 0 0 124.032 123.962"
	 xml:space="preserve">
<defs>
</defs>
<path fill="#FFFFFF" d="M124.013,61.981c0,17.464-0.011,34.927,0.013,52.391c0.003,2.244-0.428,4.308-1.844,6.091
	c-1.753,2.208-4.045,3.377-6.867,3.494c-0.19,0.008-0.38,0.003-0.569,0.003c-35.171,0-70.343,0.001-105.514-0.002
	c-3.868,0-6.716-1.733-8.401-5.207c-0.448-0.924-0.567-2.016-0.774-3.044c-0.094-0.471-0.042-0.973-0.042-1.461
	C0.014,79.374,0.02,44.501,0,9.628C-0.001,7.362,0.366,5.256,1.816,3.45c1.745-2.173,4.017-3.329,6.808-3.446
	c0.162-0.007,0.325-0.004,0.488-0.004c35.253,0,70.505-0.004,105.758,0.005c3.784,0.001,6.633,1.668,8.308,5.085
	c0.463,0.944,0.595,2.064,0.792,3.12c0.108,0.578,0.042,1.19,0.042,1.786C124.014,27.325,124.013,44.653,124.013,61.981z
	 M66.145,54.318c-0.053-0.013-0.106-0.026-0.158-0.039c0-0.264,0-0.527,0-0.791c0-2.033,0.001-4.067-0.001-6.1
	c-0.001-1.073-0.003-1.077-1.086-1.077c-5.205-0.002-10.411-0.001-15.616,0c-1.125,0-1.13,0.003-1.13,1.129
	c-0.001,19.087-0.001,38.173,0,57.26c0,1.087,0.005,1.091,1.076,1.091c5.395,0.001,10.79,0.001,16.186,0.001
	c1.344,0,1.345-0.001,1.345-1.311c0-9.435-0.042-18.87,0.031-28.304c0.018-2.288,0.236-4.608,0.678-6.851
	c0.732-3.719,2.708-6.548,6.576-7.617c1.951-0.539,3.948-0.643,5.954-0.275c2.947,0.541,4.907,2.257,5.996,5.019
	c0.837,2.124,1.154,4.362,1.166,6.607c0.056,10.546,0.035,21.093,0.043,31.639c0.001,1.088,0.005,1.092,1.075,1.092
	c5.531,0.001,11.062,0.001,16.592,0c1.077,0,1.083-0.004,1.082-1.086c-0.004-11.116,0.029-22.232-0.036-33.347
	c-0.027-4.612-0.461-9.194-1.917-13.62c-1.708-5.19-4.861-9.093-10.032-11.142c-3.74-1.483-7.668-1.927-11.652-1.68
	c-5.802,0.359-10.751,2.568-14.524,7.109C67.193,52.747,66.692,53.552,66.145,54.318z M18.203,76.056c0,9.543,0,19.086,0,28.628
	c0,1.101,0.003,1.106,1.054,1.106c5.503,0.002,11.007-0.014,16.51,0.017c0.809,0.005,1.073-0.213,1.072-1.048
	c-0.021-19.14-0.021-38.28-0.001-57.419c0.001-0.84-0.281-1.05-1.083-1.046c-5.476,0.03-10.952,0.015-16.429,0.016
	c-1.121,0-1.124,0.003-1.124,1.117C18.202,56.971,18.203,66.513,18.203,76.056z M27.554,38.465
	c5.803-0.068,10.813-4.506,10.819-10.816c0.006-6.417-5.264-10.853-10.905-10.803c-5.923,0.052-10.726,4.856-10.728,10.808
	C16.737,33.612,21.603,38.476,27.554,38.465z"/>
<path fill="#243284" d="M66.145,54.318c0.547-0.767,1.048-1.572,1.648-2.294c3.773-4.541,8.722-6.75,14.524-7.109
	c3.984-0.247,7.911,0.198,11.652,1.68c5.171,2.05,8.323,5.953,10.032,11.142c1.457,4.426,1.89,9.008,1.917,13.62
	c0.065,11.115,0.032,22.231,0.036,33.347c0,1.083-0.006,1.086-1.082,1.086c-5.531,0.001-11.062,0.001-16.592,0
	c-1.07,0-1.074-0.004-1.075-1.092c-0.008-10.546,0.013-21.093-0.043-31.639c-0.012-2.245-0.328-4.483-1.166-6.607
	c-1.089-2.762-3.05-4.479-5.996-5.019c-2.006-0.368-4.002-0.265-5.954,0.275c-3.868,1.069-5.844,3.898-6.576,7.617
	c-0.442,2.243-0.66,4.563-0.678,6.851c-0.073,9.434-0.03,18.869-0.031,28.304c0,1.311-0.001,1.311-1.345,1.311
	c-5.395,0-10.79,0.001-16.186-0.001c-1.072,0-1.076-0.004-1.076-1.091c-0.001-19.087-0.001-38.173,0-57.26
	c0-1.126,0.004-1.128,1.13-1.129c5.205-0.001,10.411-0.001,15.616,0c1.082,0,1.085,0.004,1.086,1.077
	c0.002,2.033,0.001,4.067,0.001,6.1c0,0.264,0,0.527,0,0.791C66.04,54.292,66.092,54.305,66.145,54.318z"/>
<path fill="#243284" d="M18.203,76.056c0-9.543,0-19.086,0-28.628c0-1.114,0.003-1.116,1.124-1.117
	c5.476-0.001,10.953,0.014,16.429-0.016c0.802-0.004,1.084,0.205,1.083,1.046c-0.02,19.14-0.021,38.28,0.001,57.419
	c0.001,0.835-0.263,1.053-1.072,1.048c-5.503-0.032-11.007-0.016-16.51-0.017c-1.05,0-1.054-0.005-1.054-1.106
	C18.202,95.142,18.203,85.599,18.203,76.056z"/>
<path fill="#243284" d="M27.554,38.465c-5.951,0.011-10.817-4.853-10.815-10.811c0.002-5.952,4.805-10.756,10.728-10.808
	c5.641-0.05,10.911,4.386,10.905,10.803C38.367,33.958,33.357,38.397,27.554,38.465z"/>
</svg>