<!-- Generator: Adobe Illustrator 18.1.1, SVG Export Plug-In  -->
<svg version="1.1"
	 xmlns="http://www.w3.org/2000/svg" xmlns:xlink="http://www.w3.org/1999/xlink" xmlns:a="http://ns.adobe.com/AdobeSVGViewerExtensions/3.0/"
	 x="0px" y="0px" width="126.695px" height="103.249px" viewBox="0 0 126.695 103.249" enable-background="new 0 0 126.695 103.249"
	 xml:space="preserve">
<defs>
</defs>
<path fill="#FFFFFF" d="M85.316,0C86.877,0,88.438,0,90,0c0.067,0.119,0.187,0.098,0.294,0.11c6.281,0.659,11.645,3.234,16.086,7.72
	c0.309,0.312,0.591,0.348,0.986,0.264c5.384-1.139,10.462-3.075,15.241-5.802c0.182-0.104,0.349-0.261,0.678-0.263
	c-2.054,6.081-5.799,10.749-11.128,14.194c2.527-0.264,4.979-0.765,7.399-1.428c2.431-0.667,4.799-1.519,7.134-2.537
	c0,0.093,0.013,0.134-0.002,0.156c-0.152,0.233-0.304,0.467-0.463,0.695c-3.299,4.712-7.245,8.798-11.877,12.211
	c-0.394,0.29-0.521,0.586-0.504,1.061c0.22,6.212-0.319,12.361-1.707,18.421c-3.421,14.936-10.456,27.873-21.473,38.584
	c-4.964,4.826-10.548,8.796-16.713,11.945c-10.175,5.197-21.029,7.632-32.403,7.898c-4.371,0.102-8.723-0.178-13.05-0.843
	c-10.087-1.55-19.442-5.056-28.091-10.461C0.261,91.834,0.059,91.789,0,91.528c6.837,0.771,13.556,0.25,20.16-1.595
	c6.603-1.845,12.605-4.882,18.124-9.166c-3.708-0.269-5.661-0.593-8.122-1.51c-7.754-2.887-13.066-8.227-15.939-15.988
	c-0.229-0.619-0.197-0.661,0.348-0.564c2.825,0.504,5.655,0.502,8.483,0.051c0.812-0.13,1.634-0.247,2.514-0.578
	c-0.254-0.07-0.394-0.115-0.536-0.148c-5.134-1.211-9.53-3.724-13.112-7.588c-4.586-4.948-6.947-10.813-7.023-17.579
	c-0.005-0.451,0.064-0.554,0.505-0.318c3,1.607,6.207,2.544,9.587,2.898c0.458,0.048,0.921,0.055,1.381,0.082
	c-0.697-0.667-1.403-1.209-2.091-1.772c-0.691-0.565-1.323-1.193-1.946-1.833c-7.874-8.1-9.521-20.819-3.982-30.707
	C8.571,4.823,8.677,4.77,8.98,5.141c1.789,2.188,3.711,4.254,5.749,6.214c6.58,6.325,14.061,11.285,22.46,14.856
	c7.869,3.345,16.078,5.232,24.609,5.758c0.611,0.038,0.468-0.253,0.399-0.585c-0.675-3.276-0.742-6.569-0.148-9.857
	C64.005,10.702,72.2,2.477,83.042,0.403C83.799,0.258,84.582,0.267,85.316,0z"/>
</svg>