<!-- Generator: Adobe Illustrator 18.1.1, SVG Export Plug-In  -->
<svg version="1.1"
	 xmlns="http://www.w3.org/2000/svg" xmlns:xlink="http://www.w3.org/1999/xlink" xmlns:a="http://ns.adobe.com/AdobeSVGViewerExtensions/3.0/"
	 x="0px" y="0px" width="218.516px" height="170.974px" viewBox="0 0 218.516 170.974" enable-background="new 0 0 218.516 170.974"
	 xml:space="preserve">
<defs>
</defs>
<g>
	<path fill="#50B6EB" d="M5.288,170.974L0,77.285l1.997-0.113l211.23-11.922l5.288,93.688l-1.997,0.113L5.288,170.974z
		 M4.219,81.053l4.837,85.702l205.241-11.584l-4.837-85.702L4.219,81.053z"/>
	<polygon fill="#50B6EB" points="65.356,76.839 62.94,75.624 99.208,3.531 148.443,69.143 149.859,70.453 148.023,72.438 
		146.354,70.863 99.663,8.643 	"/>
	<circle fill="#50B6EB" cx="101.482" cy="3.833" r="3.833"/>
	<polygon fill="#50B6EB" points="99.148,5.167 97.648,12.667 99.148,12.667 101.482,6.087 	"/>
	<g>
		<path fill="#50B6EB" d="M27.244,122.893c-0.319-5.776-0.369-9.65-0.147-11.625c0.243-1.975,0.693-3.586,1.353-4.831
			c1.038-2.347,2.793-4.485,5.264-6.414c2.428-1.948,5.529-3.05,9.306-3.304c3.826-0.166,7.063,0.588,9.713,2.262
			c2.625,1.653,4.562,3.596,5.809,5.824c0.879,1.158,1.527,2.706,1.941,4.64c0.394,1.936,0.75,5.785,1.069,11.55
			c0.314,5.674,0.383,9.517,0.208,11.529c-0.197,2.015-0.668,3.646-1.415,4.893c-0.993,2.354-2.704,4.475-5.135,6.362
			c-2.447,1.957-5.58,3.087-9.398,3.389c-3.784,0.118-6.989-0.66-9.617-2.337c-2.667-1.604-4.647-3.521-5.938-5.748
			c-0.392-0.729-0.751-1.427-1.073-2.092c-0.303-0.688-0.571-1.561-0.807-2.619C27.935,132.393,27.559,128.566,27.244,122.893z
			 M34.522,122.49c0.271,4.89,0.63,8.189,1.077,9.897c0.405,1.711,1.109,3.076,2.115,4.092c0.827,0.981,1.887,1.755,3.177,2.321
			c1.274,0.683,2.771,0.978,4.488,0.882c1.739-0.096,3.226-0.556,4.463-1.377c1.175-0.703,2.098-1.587,2.768-2.65
			c0.888-1.122,1.46-2.556,1.717-4.304c0.233-1.746,0.216-5.065-0.055-9.955c-0.271-4.889-0.621-8.211-1.048-9.967
			c-0.446-1.662-1.172-3.004-2.178-4.02c-0.783-0.984-1.8-1.783-3.047-2.397c-1.315-0.589-2.843-0.857-4.584-0.808
			c-1.716,0.142-3.171,0.575-4.367,1.303c-1.218,0.751-2.184,1.66-2.897,2.727c-0.888,1.121-1.438,2.531-1.654,4.231
			C34.243,114.26,34.252,117.602,34.522,122.49z"/>
		<path fill="#50B6EB" d="M70.021,95.633l17.427-0.965c1.892-0.104,3.728-0.022,5.507,0.242c1.787,0.38,3.624,1.257,5.51,2.632
			c1.576,1.027,2.894,2.548,3.952,4.561c1.1,1.942,1.723,4.276,1.874,6.998c0.203,3.677-0.866,7.093-3.207,10.25
			c-2.399,3.319-6.071,5.161-11.018,5.525l-11.092,0.613l1.072,19.372l-7.278,0.403L70.021,95.633z M78.583,118.415l10.804-0.598
			c2.707-0.195,4.696-1.175,5.968-2.938c1.208-1.713,1.758-3.573,1.646-5.579c-0.092-1.665-0.434-3.053-1.024-4.163
			c-0.609-0.995-1.424-1.762-2.448-2.3c-1.551-0.896-3.318-1.269-5.298-1.113l-10.539,0.583L78.583,118.415z"/>
		<path fill="#50B6EB" d="M111.348,93.346l30.71-1.7l0.392,7.078l-23.433,1.297l0.786,14.201l20.003-1.107l0.368,6.665
			l-20.003,1.107l0.81,14.611l23.433-1.297l0.392,7.076l-30.71,1.7L111.348,93.346z"/>
		<path fill="#50B6EB" d="M150.12,91.199l6.861-0.38l23.724,34.078l0.132-0.007l-1.952-35.283l7.277-0.403l2.747,49.632
			l-6.894,0.382l-23.691-34.079l-0.133,0.008l1.953,35.282l-7.277,0.402L150.12,91.199z"/>
	</g>
</g>
</svg>