<!-- Generator: Adobe Illustrator 18.1.1, SVG Export Plug-In  -->
<svg version="1.1"
	 xmlns="http://www.w3.org/2000/svg" xmlns:xlink="http://www.w3.org/1999/xlink" xmlns:a="http://ns.adobe.com/AdobeSVGViewerExtensions/3.0/"
	 x="0px" y="0px" width="204.04px" height="137.397px" viewBox="0 0 204.04 137.397" enable-background="new 0 0 204.04 137.397"
	 xml:space="preserve">
<defs>
</defs>
<path fill="#333A97" stroke="#F9DF70" stroke-width="4.0395" stroke-miterlimit="10" d="M2.02,24.745v43.954v43.954
	c106.278,51.132,200,0,200,0V68.698V24.745C95.742-26.387,2.02,24.745,2.02,24.745z"/>
<g>
	<path fill="#F9DF70" d="M158.395,62.552c-0.314,0.616-0.68,1.274-1.108,1.957c-0.441,0.704-0.886,1.337-1.316,1.901
		c2.049,4.94,2.306,8.351,0.657,11.899c-1.303,2.803-8.478,3.902-8.982-0.064c-3.413,2.235-3.467,3.919,0.333,5.584
		c3.802,1.666,8.809,1.609,11.682-1.69C164.162,76.967,160.695,66.401,158.395,62.552z"/>
	<path fill="#F9DF70" d="M45.126,41.145c-4.544-0.872-5.852-10.085-1.24-14.185c8.074-7.178,14.505-0.181,22.689,2.744
		c7.938,2.837,15.745,1.973,22.313-3.438c0.942-0.776,4.011-3.611,5.347-4.414c2.854-1.716,2.433,4.165-5.725,10.567
		c-5.14,4.033-10.204,2.849-11.07,3.611c-1.434,1.261,1.986,37.552-8.689,46.651c-1.634,1.393-8.861,3.831-5.635,0.732
		c1.208-1.16,2.36-2.431,2.804-4.411c5.601-24.972,2.422-42.664,0.244-44.27c-2.209-1.63-8.194-3.618-13.879-3.486
		c-5.493,0.127-6.687,5.725-2.702,9.314C50.385,41.284,47.839,41.679,45.126,41.145z"/>
	<path fill="#F9DF70" d="M93.513,81.799c0.98,3.607-4.565,4.095-6.862,2.46c-2.694-1.917-2.84-6.169-2.439-9.154
		c0.529-3.934,2.682-7.873,2.514-11.938c-0.016-0.382,0.093-3.128-1.027-3.362c-1.013-0.211-2.916,1.817-2.641-1.523
		c0.271-3.296,4.661-7.39,8.109-6.781c4.246,0.749,3.83,6.423,3.148,9.643c-0.949,4.48-2.927,8.714-3.778,13.228
		C90.256,75.862,90.32,83.092,93.513,81.799C93.656,82.325,93.28,81.894,93.513,81.799z"/>
	<path fill="#F9DF70" d="M143.996,44.82c-0.914,0.144,3.688-4.321,2.634-6.298c-0.273-0.512-4.508-3.353-1.395-7.835
		c2.184-3.145,6.489-2.203,7.385,1.759C153.783,37.591,148.58,44.097,143.996,44.82z"/>
	<path fill="#F9DF70" d="M97.285,41.161c0.161,2.329-1.169,5.479-3.556,6.308c-6.868,2.386-6.435-7.529-1.793-10.045
		c1.144-0.62,2.572-0.331,3.463,0.619C96.239,38.941,97.217,40.181,97.285,41.161z"/>
	<path fill="#F9DF70" d="M155.942,48.149c-4.252,0.474-7.519,3.544-5.933,7.812c1.094,2.945,1.62,3.56,2.841,5.05
		c-1.889,6.176-7.342,10.11-12.304,14.042c-1.13,0.896-3.467,3.477-5.09,1.944c-1.123-1.061,0.687-6.504,0.924-7.776
		c0.891-4.773,3.566-15.03-0.805-19.092c-4.067-3.779-10.943,0.734-13.31,4.18c-0.734-6.763-7.004-6.317-10.954-2.822
		c-0.674-1.468-0.772-3.221-2.254-3.942c-2.035-0.989-4.699,0.415-6.204,1.785c-1.83,1.666-6.621,9.638-2.655,11.313
		c3.029,1.28,4.564-7.236,4.517,1.489c-0.017,3.234,0.107,16.099-2.808,18.019c-1.656,1.09-2.815-1.934-3.19,1.307
		c-0.329,2.848,2.78,4.342,5.08,4.13c5.248-0.483,5.894-6.774,6.253-10.876c0.378-4.323,0.831-8.462,1.833-12.706
		c0.67-2.838,3.279-8.685,5.571-3.451c1.421,3.244-0.227,8.768-0.659,12.104c-0.363,2.798-2.645,8.819,1.652,9.227
		c3.902,0.371,3.917-5.086,4.402-7.748c0.813-4.465,1.481-9.356,4.029-13.184c2.655-3.988,4.5-2.854,4.284,1.707
		c-0.113,2.394-0.724,4.979-1.001,7.392c-0.407,3.55-2.716,9.005-1.26,12.473c3.158,7.524,12.331,1.087,15.946-2.148
		c4.066-3.639,16.114-19.882,16.093-25.31C160.93,49.936,159.103,47.796,155.942,48.149z M155.444,57.284c0,0-3.144-5.618,0.56-5.68
		C158.245,51.566,155.444,57.284,155.444,57.284z"/>
</g>
<g>
	<g>
		<path fill="#FFFFFF" d="M44.347,106.801c0.768,0,1.265,0.809,0.931,1.501c-0.329,0.682-0.763,1.247-1.303,1.696
			c-0.922,0.738-2.011,1.106-3.27,1.107c-1.139-0.028-2.091-0.314-2.853-0.861c-0.775-0.526-1.337-1.135-1.69-1.826
			c-0.106-0.226-0.202-0.442-0.288-0.647c-0.079-0.211-0.145-0.478-0.198-0.799c-0.1-0.602-0.15-1.759-0.151-3.469
			c0-1.737,0.048-2.9,0.148-3.489c0.105-0.588,0.268-1.064,0.485-1.426c0.352-0.691,0.915-1.307,1.69-1.848
			c0.762-0.547,1.712-0.829,2.852-0.842c1.398,0.012,2.538,0.44,3.42,1.279c0.509,0.49,0.911,1.048,1.204,1.673
			c0.32,0.684-0.188,1.473-0.943,1.473l-0.228,0c-0.38,0-0.735-0.206-0.905-0.546c-0.186-0.373-0.44-0.705-0.761-0.995
			c-0.492-0.404-1.089-0.613-1.793-0.626c-0.518,0.013-0.962,0.12-1.334,0.319c-0.377,0.207-0.683,0.464-0.915,0.772
			c-0.286,0.323-0.475,0.737-0.567,1.245c-0.106,0.534-0.159,1.539-0.159,3.012c0.001,1.474,0.054,2.472,0.161,2.993
			c0.093,0.521,0.282,0.942,0.567,1.265c0.232,0.308,0.538,0.559,0.916,0.749c0.373,0.226,0.817,0.339,1.336,0.339
			c1.081-0.001,1.921-0.523,2.523-1.567c0.179-0.31,0.53-0.48,0.888-0.48L44.347,106.801z"/>
		<path fill="#FFFFFF" d="M47.212,103.498c0-1.741,0.048-2.906,0.148-3.496c0.105-0.589,0.268-1.065,0.485-1.429
			c0.352-0.688,0.914-1.301,1.689-1.841c0.761-0.545,1.711-0.824,2.85-0.839c1.153,0.013,2.114,0.294,2.882,0.841
			c0.762,0.541,1.312,1.155,1.649,1.846c0.246,0.362,0.415,0.838,0.508,1.426c0.086,0.589,0.129,1.752,0.129,3.489
			c0.001,1.71-0.041,2.867-0.127,3.469c-0.093,0.601-0.261,1.084-0.507,1.446c-0.337,0.691-0.887,1.301-1.648,1.827
			c-0.768,0.547-1.728,0.835-2.88,0.863c-1.139-0.027-2.091-0.314-2.852-0.861c-0.775-0.526-1.338-1.135-1.69-1.826
			c-0.106-0.226-0.202-0.442-0.288-0.647c-0.079-0.211-0.145-0.478-0.198-0.799C47.263,106.365,47.213,105.209,47.212,103.498z
			 M49.405,103.497c0.001,1.474,0.054,2.472,0.161,2.993c0.093,0.521,0.282,0.943,0.567,1.265c0.232,0.308,0.537,0.559,0.915,0.75
			c0.373,0.226,0.817,0.338,1.336,0.338c0.524,0,0.978-0.113,1.362-0.339c0.365-0.193,0.657-0.443,0.876-0.751
			c0.286-0.323,0.481-0.744,0.587-1.265c0.099-0.521,0.149-1.519,0.148-2.993c0-1.473-0.051-2.478-0.151-3.012
			c-0.106-0.508-0.302-0.922-0.587-1.245c-0.219-0.308-0.511-0.565-0.877-0.77c-0.385-0.199-0.84-0.305-1.363-0.319
			c-0.518,0.013-0.963,0.12-1.335,0.319c-0.377,0.206-0.683,0.463-0.915,0.771c-0.286,0.323-0.475,0.737-0.567,1.245
			C49.458,101.02,49.405,102.024,49.405,103.497z"/>
		<path fill="#FFFFFF" d="M61.552,96.014l0.126,0c0.571,0,1.034,0.462,1.034,1.033l0.005,12.894c0,0.571-0.462,1.034-1.033,1.034
			l-0.126,0c-0.571,0-1.034-0.462-1.034-1.033l-0.005-12.894C60.518,96.477,60.981,96.014,61.552,96.014z"/>
		<path fill="#FFFFFF" d="M66.969,96.012l0.458,0c0.358,0,0.691,0.185,0.88,0.49l6.264,10.142h0.039l-0.004-9.602
			c0-0.571,0.462-1.034,1.033-1.034l0.127,0c0.571,0,1.034,0.462,1.034,1.033l0.005,12.894c0,0.571-0.462,1.034-1.033,1.034
			l-0.468,0c-0.359,0-0.692-0.186-0.88-0.491l-6.253-10.142h-0.04l0.003,9.602c0,0.571-0.462,1.034-1.033,1.034l-0.126,0
			c-0.571,0-1.034-0.462-1.034-1.033l-0.005-12.894C65.936,96.475,66.399,96.012,66.969,96.012z"/>
		<path fill="#FFFFFF" d="M86.383,96.005l0.126,0c0.571,0,1.034,0.462,1.034,1.033l0.004,10.76c0,0.571,0.463,1.033,1.034,1.033
			l4.997-0.002c0.571,0,1.034,0.463,1.034,1.033v0.067c0,0.571-0.462,1.033-1.033,1.033l-7.191,0.003
			c-0.571,0-1.034-0.462-1.034-1.033L85.35,97.039C85.35,96.468,85.813,96.005,86.383,96.005z"/>
		<path fill="#FFFFFF" d="M103.723,107.613l-4.007,0.001c-0.445,0-0.84,0.285-0.98,0.707l-0.642,1.933
			c-0.14,0.422-0.535,0.707-0.98,0.707l-0.121,0c-0.713,0-1.212-0.704-0.975-1.376l4.535-12.895c0.145-0.414,0.536-0.69,0.974-0.691
			l0.375,0c0.438,0,0.829,0.276,0.975,0.69l4.544,12.892c0.237,0.672-0.262,1.377-0.974,1.377l-0.113,0
			c-0.444,0-0.839-0.283-0.98-0.704l-0.651-1.937C104.562,107.896,104.167,107.613,103.723,107.613z M102.423,105.604
			c0.7,0,1.197-0.682,0.984-1.349l-1.666-5.195h-0.039l-1.663,5.197c-0.213,0.667,0.284,1.349,0.985,1.348L102.423,105.604z"/>
		<path fill="#FFFFFF" d="M110.24,95.996l0.126,0c0.571,0,1.034,0.462,1.034,1.033l0.003,8.621c0.014,1.02,0.3,1.797,0.857,2.331
			c0.545,0.561,1.245,0.841,2.101,0.841c0.856,0,1.562-0.281,2.119-0.843c0.543-0.534,0.823-1.311,0.835-2.331l-0.003-8.621
			c0-0.571,0.462-1.034,1.033-1.034l0.126,0c0.571,0,1.034,0.462,1.034,1.033l0.003,8.858c-0.025,1.573-0.518,2.822-1.479,3.746
			c-0.967,0.951-2.19,1.435-3.667,1.448c-1.452-0.012-2.666-0.494-3.64-1.444c-0.994-0.922-1.499-2.169-1.512-3.74l-0.003-8.864
			C109.206,96.459,109.669,95.996,110.24,95.996z"/>
		<path fill="#FFFFFF" d="M123.744,95.991l0.458,0c0.358,0,0.691,0.185,0.88,0.49l6.264,10.142h0.039l-0.004-9.602
			c0-0.571,0.462-1.034,1.033-1.034l0.127,0c0.571,0,1.034,0.462,1.034,1.033l0.005,12.894c0,0.571-0.462,1.034-1.033,1.034
			l-0.468,0c-0.359,0-0.692-0.186-0.88-0.491l-6.253-10.142h-0.04l0.003,9.602c0,0.571-0.462,1.034-1.033,1.034l-0.126,0
			c-0.571,0-1.034-0.462-1.034-1.033l-0.005-12.894C122.711,96.454,123.173,95.992,123.744,95.991z"/>
		<path fill="#FFFFFF" d="M137.086,97.02c0-0.571,0.462-1.034,1.033-1.034l4.036-0.001c1.962,0.012,3.434,0.854,4.416,2.522
			c0.352,0.561,0.573,1.149,0.666,1.765c0.073,0.616,0.11,1.679,0.11,3.191c0.001,1.608-0.054,2.73-0.167,3.366
			c-0.053,0.322-0.133,0.609-0.238,0.862c-0.113,0.246-0.249,0.503-0.408,0.77c-0.424,0.705-1.014,1.287-1.768,1.745
			c-0.749,0.493-1.667,0.74-2.754,0.74l-3.887,0.001c-0.571,0-1.034-0.462-1.034-1.033L137.086,97.02z M139.284,107.779
			c0,0.571,0.463,1.033,1.034,1.033l1.594-0.001c1.234,0,2.128-0.436,2.686-1.306c0.245-0.322,0.402-0.731,0.468-1.224
			c0.059-0.486,0.089-1.398,0.089-2.735c-0.001-1.303-0.031-2.235-0.092-2.797c-0.079-0.562-0.269-1.018-0.567-1.368
			c-0.612-0.87-1.474-1.291-2.588-1.263l-1.594,0.001c-0.571,0-1.033,0.463-1.033,1.034L139.284,107.779z"/>
		<path fill="#FFFFFF" d="M150.323,97.015c0-0.571,0.462-1.034,1.033-1.034l4.628-0.002c1.207,0,2.193,0.327,2.956,0.984
			c0.918,0.746,1.398,1.81,1.437,3.192c-0.021,1.683-0.665,2.92-1.931,3.712c-0.461,0.288-0.647,0.866-0.401,1.351l2.134,4.22
			c0.348,0.687-0.152,1.499-0.922,1.5l-0.27,0c-0.401,0-0.766-0.231-0.936-0.594l-2.443-5.203c-0.17-0.363-0.535-0.594-0.936-0.594
			l-1.121,0c-0.571,0-1.033,0.463-1.033,1.034l0.001,4.327c0,0.571-0.462,1.033-1.033,1.034l-0.126,0
			c-0.571,0-1.034-0.462-1.034-1.033L150.323,97.015z M152.518,101.506c0,0.571,0.463,1.033,1.034,1.033l2.295-0.001
			c0.824-0.014,1.442-0.261,1.853-0.741c0.405-0.446,0.608-0.995,0.608-1.647c-0.013-0.782-0.256-1.346-0.729-1.696
			c-0.372-0.309-0.91-0.463-1.614-0.463l-2.414,0.001c-0.571,0-1.033,0.463-1.033,1.034L152.518,101.506z"/>
		<path fill="#FFFFFF" d="M164.933,104.566l-3.518-7.096c-0.341-0.687,0.159-1.492,0.926-1.492h0c0.403,0,0.768,0.234,0.938,0.599
			l1.858,4.011c0.37,0.799,1.506,0.798,1.876-0.001l1.854-4.012c0.169-0.366,0.535-0.6,0.938-0.6l0,0
			c0.767,0,1.267,0.805,0.926,1.492l-3.514,7.096c-0.071,0.143-0.107,0.3-0.107,0.459l0.001,4.881c0,0.571-0.462,1.033-1.033,1.034
			h-0.003c-0.571,0-1.034-0.462-1.034-1.033l-0.001-4.879C165.04,104.865,165.004,104.708,164.933,104.566z"/>
	</g>
</g>
</svg>