<!-- Generator: Adobe Illustrator 18.1.1, SVG Export Plug-In  -->
<svg version="1.1"
	 xmlns="http://www.w3.org/2000/svg" xmlns:xlink="http://www.w3.org/1999/xlink" xmlns:a="http://ns.adobe.com/AdobeSVGViewerExtensions/3.0/"
	 x="0px" y="0px" width="87.824px" height="287.307px" viewBox="0 0 87.824 287.307" enable-background="new 0 0 87.824 287.307"
	 xml:space="preserve">
<defs>
</defs>
<g>
	<path fill="#50B6EB" d="M43.964,287.307h-0.056c-1.542,0-3.04-0.179-4.502-0.532c-3.619-0.845-6.468-2.526-8.003-3.587
		c-2.284,1.066-7.327,3.13-12.629,3.388c-1.114,0.076-2.266,0.042-3.338-0.104l-0.116-0.016c-0.196-0.027-0.392-0.058-0.582-0.093
		c-4.875-0.788-8.353-3.579-10.302-8.29c-4.921-11.889-4.617-82.591-4.259-112.437c0.062-5.209,1.27-12.567,4.473-17.597
		c3.447-5.414,6.402-20.525,1.799-35.765c-3.534-11.701-1.427-23.681,1.247-35.946c2.519-11.552,7.339-20.61,16.943-38.656
		l2.731-5.139l0.749-5.615c-1.166-0.199-2.232-0.764-3.07-1.638c-1.063-1.107-1.613-2.562-1.55-4.097l0.66-15.834
		C24.285,2.351,26.735,0,29.738,0h28.348c3.003,0,5.453,2.351,5.578,5.351l0.659,15.834c0.064,1.533-0.485,2.987-1.548,4.096
		c-0.838,0.874-1.904,1.438-3.071,1.639l0.749,5.616c11.362,21.421,16.954,32.313,19.675,44.794
		c2.811,12.891,2.558,24.985-0.753,35.946c-4.765,15.772,0.316,31.578,3.366,36.367c3.143,4.937,4.84,10.467,4.905,15.994
		c0.358,29.845,0.662,100.545-4.259,112.437c-1.949,4.711-5.427,7.502-10.337,8.296c-0.155,0.029-0.351,0.06-0.55,0.087
		l-0.113,0.016c-1.071,0.145-2.172,0.181-3.366,0.103c-5.277-0.257-10.317-2.32-12.601-3.387c-1.535,1.061-4.387,2.743-8.016,3.59
		C46.957,287.128,45.458,287.307,43.964,287.307z M29.738,3c-1.39,0-2.522,1.087-2.58,2.476l-0.66,15.834
		c-0.03,0.71,0.225,1.383,0.717,1.896C27.706,23.718,28.368,24,29.078,24h2.457l-1.262,9.465l-2.985,5.617
		c-9.475,17.803-14.23,26.738-16.66,37.886c-2.587,11.865-4.634,23.427-1.308,34.44c4.876,16.138,1.606,32.36-2.139,38.243
		c-2.865,4.498-3.947,11.225-4.004,16.021c-0.278,23.143-0.81,99.559,4.03,111.255c1.546,3.735,4.177,5.855,8.043,6.481
		c0.182,0.033,0.332,0.056,0.485,0.077l-0.099,1.5l0.201-1.486c0.874,0.119,1.779,0.148,2.762,0.081
		c5.672-0.275,11.226-2.941,12.281-3.474l0.839-0.422l0.746,0.569c1.033,0.788,3.848,2.719,7.633,3.602
		c1.242,0.301,2.504,0.451,3.761,0.451h0.104c1.257,0,2.519-0.15,3.748-0.448c3.798-0.886,6.612-2.816,7.646-3.604l0.746-0.569
		l0.839,0.422c1.056,0.532,6.609,3.198,12.253,3.473c1.061,0.069,1.915,0.039,2.79-0.08l0.31,1.472l-0.206-1.485
		c0.152-0.021,0.303-0.044,0.448-0.071c3.901-0.632,6.533-2.752,8.079-6.487c4.84-11.698,4.309-88.113,4.03-111.255
		c-0.059-4.968-1.593-9.953-4.437-14.418c-3.417-5.366-8.819-21.923-3.706-38.846c3.16-10.467,3.393-22.054,0.692-34.44
		c-2.646-12.141-8.203-22.934-19.52-44.265l-0.126-0.238L56.289,24h2.456c0.711,0,1.373-0.282,1.864-0.796
		c0.492-0.513,0.746-1.185,0.716-1.894L60.666,5.476C60.608,4.087,59.476,3,58.086,3H29.738z"/>
	<path fill="#50B6EB" d="M79.282,107.456c0,0-38.12,6.956-72.45,0c0,0,8.998,23.235-0.916,41.39c0,0,39.533,10.345,75.56,0
		C81.476,148.845,70.563,133.411,79.282,107.456z"/>
	<path fill="#50B6EB" d="M58.002,25.5h-28.18c0,0-9.013,1.122-2-23.522L58.086,1.5c0,0,3.86-1.348,4.3,9.199
		C62.825,21.247,63.169,25.5,58.002,25.5z"/>
</g>
</svg>