<!-- Generator: Adobe Illustrator 18.1.1, SVG Export Plug-In  -->
<svg version="1.1"
	 xmlns="http://www.w3.org/2000/svg" xmlns:xlink="http://www.w3.org/1999/xlink" xmlns:a="http://ns.adobe.com/AdobeSVGViewerExtensions/3.0/"
	 x="0px" y="0px" width="234.237px" height="97.323px" viewBox="0 0 234.237 97.323" enable-background="new 0 0 234.237 97.323"
	 xml:space="preserve">
<defs>
</defs>
<g>
	<g>
		<path fill="#50B6EB" d="M188.189,24.988c0,0-0.115-0.049-0.34-0.145c-0.224-0.099-0.574-0.216-0.968-0.499
			c-0.832-0.491-1.923-1.442-3.159-2.84c-1.246-1.391-2.645-3.223-4.247-5.403c-0.803-1.089-1.666-2.259-2.622-3.479
			c-0.97-1.2-1.996-2.521-3.394-3.553c-2.788-2.078-6.102-4.112-10.04-5.567c-3.92-1.476-8.445-2.316-13.288-2.288
			c-9.702,0.228-20.473,2.66-31.802,6.375c-5.689,1.801-11.579,3.816-17.786,5.571c-6.201,1.751-12.75,3.221-19.612,3.795
			c-6.864,0.638-13.971,0.059-21.089-0.91c-7.126-0.917-14.39-2.014-21.793-2.071c-7.367-0.061-14.956,1.113-21.648,4.618
			c-0.42,0.211-0.848,0.407-1.262,0.629l-1.198,0.752c-0.795,0.507-1.615,0.978-2.394,1.514l-2.25,1.742
			c-0.368,0.29-0.768,0.582-1.111,0.871l-1.087,0.966c-0.673,0.64-1.35,1.297-1.936,2.005c-0.604,0.689-1.104,1.459-1.334,2.17
			c-0.072,0.181-0.056,0.336-0.098,0.501c0.033,0.141-0.004,0.298,0.069,0.421c0.06,0.266,0.282,0.516,0.565,0.762
			c0.598,0.484,1.458,0.853,2.333,1.16c3.585,1.189,7.564,1.831,11.352,3.289c1.876,0.712,3.809,1.693,5.399,2.926
			c1.675,1.252,3.136,2.65,4.519,4.115c2.754,2.913,5.255,5.972,8.354,8.217c0.806,0.576,1.606,1.187,2.418,1.734l2.459,1.522
			c1.705,0.944,3.436,1.859,5.233,2.644c7.16,3.233,14.885,5.172,22.467,7.63c3.79,1.239,7.554,2.633,11.15,4.407l1.35,0.66
			l1.31,0.741c0.865,0.491,1.765,0.988,2.579,1.523c1.662,1.032,3.333,2.131,4.96,3.22c3.271,2.17,6.451,4.422,9.796,6.262
			c3.342,1.832,6.869,3.249,10.568,3.864c3.69,0.654,7.47,0.638,11.191,0.319c3.769-0.342,7.456-0.853,11.112-1.527
			c7.292-1.37,14.352-3.355,20.99-5.997c3.315-1.316,6.526-2.818,9.552-4.536c3.044-1.711,5.958-3.578,8.841-5.419
			c5.748-3.688,11.475-7.256,17.596-9.448c0.755-0.296,1.526-0.535,2.296-0.764l1.15-0.352l1.176-0.261
			c1.541-0.35,3.163-0.491,4.71-0.578c3.125-0.149,6.18,0.021,9.161,0.209c2.981,0.192,5.894,0.427,8.744,0.526
			c2.846,0.096,5.648,0.063,8.307-0.438c1.327-0.259,2.604-0.643,3.795-1.207c0.586-0.291,1.149-0.614,1.647-1.021
			c0.506-0.391,0.941-0.871,1.222-1.426c0.599-1.118,0.361-2.467-0.213-3.539c-0.567-1.096-1.376-2.036-2.215-2.898
			c-1.705-1.713-3.605-3.107-5.468-4.386c-1.873-1.271-3.743-2.4-5.563-3.443c-3.646-2.077-7.095-3.807-10.237-5.306
			c-6.293-2.986-11.364-5.058-14.839-6.415C190.092,25.576,188.189,24.988,188.189,24.988z M188.189,24.988
			c0,0,1.906,0.579,5.39,1.92c3.482,1.341,8.563,3.389,14.873,6.348c3.151,1.486,6.61,3.201,10.27,5.263
			c1.827,1.036,3.705,2.159,5.59,3.425c1.874,1.275,3.788,2.664,5.518,4.386c0.852,0.868,1.678,1.815,2.269,2.944
			c0.597,1.097,0.871,2.547,0.229,3.759c-0.299,0.598-0.759,1.104-1.282,1.513c-0.513,0.424-1.098,0.763-1.696,1.062
			c-1.202,0.577-2.513,0.979-3.854,1.246c-2.694,0.523-5.513,0.553-8.371,0.5c-2.862-0.066-5.782-0.266-8.761-0.423
			c-5.924-0.294-12.281-0.609-18.237,1.923c-6.01,2.232-11.635,5.823-17.338,9.579c-2.861,1.874-5.767,3.785-8.824,5.551
			c-3.06,1.784-6.282,3.336-9.628,4.71c-6.683,2.75-13.795,4.841-21.155,6.313c-3.675,0.723-7.445,1.289-11.222,1.676
			c-3.819,0.373-7.737,0.44-11.63-0.202c-3.902-0.604-7.652-2.111-11.117-3.987c-3.474-1.891-6.685-4.149-9.952-6.294
			c-1.634-1.082-3.249-2.134-4.932-3.17c-0.834-0.541-1.661-0.988-2.511-1.467l-1.266-0.709l-1.311-0.633
			c-3.49-1.702-7.174-3.05-10.924-4.257c-7.5-2.402-15.312-4.305-22.703-7.613c-1.849-0.818-3.635-1.771-5.407-2.764L37.6,53.954
			c-0.833-0.568-1.613-1.17-2.422-1.753c-3.354-2.462-5.907-5.646-8.581-8.489c-1.329-1.425-2.742-2.775-4.233-3.901
			c-1.54-1.198-3.171-2.02-4.972-2.725c-3.586-1.406-7.436-2.036-11.287-3.322c-0.961-0.353-1.945-0.737-2.875-1.485
			c-0.448-0.384-0.914-0.897-1.108-1.586c-0.136-0.33-0.12-0.677-0.146-1.018c0.045-0.312,0.069-0.657,0.172-0.932
			c0.38-1.144,1.016-2.016,1.682-2.79c0.661-0.788,1.385-1.485,2.123-2.177l1.093-0.963c0.399-0.334,0.786-0.611,1.179-0.919
			l2.348-1.799c0.813-0.555,1.67-1.045,2.501-1.568l1.257-0.767c0.435-0.227,0.883-0.428,1.324-0.643
			c7.027-3.576,14.912-4.682,22.409-4.531c7.542,0.148,14.827,1.341,21.929,2.337c7.095,1.048,14.077,1.697,20.868,1.147
			c6.79-0.488,13.308-1.869,19.507-3.542c6.204-1.677,12.114-3.621,17.83-5.358c5.713-1.742,11.235-3.297,16.583-4.357
			c1.326-0.313,2.662-0.494,3.971-0.719c1.31-0.221,2.601-0.444,3.885-0.553c1.283-0.136,2.547-0.269,3.793-0.401
			c1.251-0.09,2.486-0.132,3.702-0.139c4.865-0.005,9.411,0.86,13.341,2.36c3.946,1.477,7.266,3.537,10.045,5.629
			c1.41,1.052,2.43,2.379,3.396,3.585c0.951,1.226,1.809,2.401,2.607,3.493c1.592,2.187,2.982,4.024,4.22,5.419
			c1.229,1.402,2.314,2.357,3.143,2.851c0.392,0.285,0.742,0.403,0.965,0.504C188.075,24.938,188.189,24.988,188.189,24.988z"/>
		<path fill="#50B6EB" d="M116.562,87.964c-2.277,0-4.369-0.162-6.395-0.496c-3.64-0.562-7.382-1.902-11.431-4.095
			c-2.757-1.501-5.37-3.242-7.896-4.926c-0.709-0.473-1.417-0.944-2.128-1.411c-1.423-0.942-3.116-2.053-4.908-3.155
			c-0.681-0.44-1.338-0.809-2.033-1.197l-1.707-0.957l-1.259-0.605c-3.012-1.468-6.441-2.804-10.795-4.205
			c-2.083-0.668-4.236-1.31-6.319-1.931c-5.457-1.628-11.099-3.311-16.485-5.721c-2.018-0.894-3.906-1.919-5.486-2.805l-2.65-1.659
			c-0.581-0.396-1.108-0.785-1.636-1.174c-0.278-0.206-0.558-0.412-0.84-0.615c-2.677-1.966-4.831-4.343-6.914-6.643
			c-0.604-0.666-1.204-1.328-1.81-1.972c-1.454-1.561-2.797-2.799-4.107-3.789c-1.326-1.031-2.783-1.827-4.733-2.591
			c-1.966-0.771-3.999-1.299-6.152-1.858c-1.658-0.43-3.373-0.875-5.087-1.447c-1.109-0.407-2.163-0.832-3.186-1.654
			c-0.747-0.641-1.207-1.302-1.429-2.04c-0.151-0.398-0.17-0.771-0.185-1.075l-0.019-0.302l0.041-0.301
			c0.037-0.293,0.079-0.625,0.2-0.949c0.439-1.326,1.188-2.309,1.86-3.091c0.708-0.845,1.474-1.577,2.197-2.254l1.116-0.984
			c0.289-0.242,0.554-0.443,0.818-0.645l2.761-2.116c0.594-0.407,1.162-0.753,1.731-1.1c0.283-0.172,0.566-0.345,0.847-0.521
			l1.268-0.774c0.351-0.186,0.648-0.326,0.945-0.467l0.462-0.221c6.052-3.08,13.3-4.646,21.527-4.646
			c0.448,0,0.895,0.005,1.341,0.014c6.573,0.129,12.958,1.045,19.133,1.932l2.914,0.415c8.591,1.269,14.896,1.606,20.648,1.141
			c5.884-0.423,12.022-1.538,19.326-3.512c4.382-1.184,8.64-2.509,12.757-3.791c1.699-0.528,3.38-1.052,5.043-1.558
			c4.984-1.52,10.864-3.229,16.68-4.381c0.975-0.231,1.984-0.395,2.961-0.553l1.238-0.205c1.232-0.208,2.506-0.423,3.766-0.53
			l3.772-0.399c1.254-0.091,2.486-0.137,3.802-0.145c4.824,0,9.547,0.839,13.703,2.425c3.521,1.318,6.889,3.205,10.29,5.765
			c1.419,1.059,2.465,2.369,3.388,3.526l0.188,0.233c0.948,1.222,1.797,2.382,2.587,3.463c1.36,1.869,2.881,3.915,4.208,5.41
			c1.093,1.248,2.124,2.189,2.907,2.657c0.3,0.213,0.513,0.302,0.7,0.38l0.438,0.188c0.345,0.106,2.209,0.698,5.402,1.927
			c5.051,1.945,9.938,4.03,14.938,6.376c3.917,1.848,7.2,3.531,10.336,5.298c2.167,1.227,3.964,2.328,5.656,3.465
			c1.866,1.27,3.841,2.691,5.666,4.508c0.78,0.794,1.757,1.865,2.449,3.188c0.858,1.575,0.946,3.335,0.228,4.69
			c-0.337,0.672-0.861,1.296-1.55,1.834c-0.484,0.4-1.083,0.776-1.863,1.168c-1.219,0.586-2.595,1.031-4.105,1.333
			c-1.919,0.372-4.002,0.537-6.763,0.537c-0.605,0-1.214-0.007-1.823-0.019c-2.138-0.049-4.249-0.169-6.483-0.296l-2.312-0.128
			c-1.914-0.096-3.896-0.193-5.877-0.193c-4.924,0-8.6,0.628-11.915,2.037c-5.868,2.182-11.25,5.59-17.18,9.494l-0.263,0.173
			c-2.765,1.811-5.623,3.683-8.611,5.409c-2.987,1.741-6.177,3.302-9.748,4.77c-6.59,2.712-13.771,4.854-21.339,6.368
			c-3.733,0.735-7.54,1.304-11.316,1.69C120.085,87.87,118.287,87.964,116.562,87.964z M4.776,29.934
			c0.008,0,0.067,0.081,0.244,0.234c0.387,0.312,1.053,0.637,2.012,0.974c1.482,0.491,3.039,0.888,4.687,1.307
			c2.197,0.559,4.47,1.137,6.692,1.992c2.17,0.824,4.126,1.886,5.652,3.069c1.502,1.121,2.979,2.465,4.634,4.218
			c0.617,0.653,1.222,1.314,1.824,1.972c2.09,2.282,4.063,4.438,6.389,6.123c0.287,0.205,0.58,0.419,0.872,0.633
			c0.504,0.369,1.008,0.737,1.518,1.081l2.428,1.5c1.449,0.803,3.228,1.758,5.107,2.579c5.127,2.314,10.671,3.998,16.032,5.626
			c2.115,0.642,4.233,1.285,6.342,1.969c4.528,1.48,8.113,2.898,11.284,4.462l1.348,0.658l1.742,0.984
			c0.753,0.427,1.532,0.867,2.256,1.342c1.416,0.88,2.955,1.879,4.968,3.226c0.7,0.464,1.398,0.934,2.095,1.402
			c2.592,1.743,5.039,3.391,7.628,4.814c3.609,1.979,6.963,3.207,10.25,3.754c3.236,0.572,6.694,0.674,10.942,0.31
			c3.705-0.336,7.31-0.832,11.016-1.515c7.37-1.384,14.37-3.383,20.803-5.941c3.404-1.353,6.576-2.859,9.428-4.478
			c2.936-1.649,5.789-3.472,8.549-5.233l0.248-0.158c6.119-3.928,11.684-7.357,17.797-9.547c0.77-0.303,1.586-0.555,2.349-0.781
			l1.143-0.349l1.251-0.282c1.687-0.382,3.408-0.518,4.87-0.6c3.2-0.152,6.34,0.023,9.279,0.209l2.335,0.157
			c2.209,0.151,4.295,0.295,6.382,0.367c0.769,0.025,1.535,0.042,2.296,0.042c2.272,0,4.113-0.146,5.791-0.463
			c1.338-0.262,2.502-0.631,3.553-1.128c0.604-0.301,1.067-0.587,1.441-0.893c0.449-0.348,0.766-0.713,0.962-1.102
			c0.379-0.709,0.299-1.679-0.203-2.617c-0.556-1.075-1.387-1.991-2.049-2.671c-1.677-1.686-3.548-3.045-5.318-4.261
			c-1.62-1.101-3.366-2.182-5.493-3.4c-3.097-1.763-6.329-3.438-10.171-5.271c-4.934-2.341-9.767-4.431-14.772-6.386
			c-3.395-1.323-5.294-1.915-5.312-1.921l-0.098-0.035l-0.473-0.201c-0.244-0.102-0.613-0.254-1.024-0.55
			c-0.898-0.526-2.074-1.577-3.324-2.989c-1.372-1.533-2.88-3.537-4.304-5.474l-0.108-0.146c-0.767-1.039-1.589-2.151-2.495-3.31
			l-0.166-0.205c-0.896-1.113-1.824-2.266-3.034-3.159c-3.255-2.425-6.457-4.201-9.793-5.433c-3.872-1.458-8.266-2.228-12.711-2.228
			l-0.224,0.001c-8.846,0.208-19.154,2.278-31.497,6.326c-1.665,0.527-3.337,1.069-5.028,1.617
			c-4.119,1.336-8.379,2.716-12.797,3.965c-7.458,2.107-13.749,3.324-19.801,3.829c-1.937,0.181-4.002,0.272-6.131,0.272
			c-4.405,0-9.228-0.377-15.176-1.187l-2.836-0.371c-6.131-0.808-12.47-1.642-18.83-1.691l-0.537-0.002
			c-7.986,0-14.931,1.516-20.64,4.506l-0.484,0.238c-0.258,0.126-0.517,0.251-0.77,0.387l-1.138,0.718
			c-0.287,0.183-0.583,0.364-0.879,0.546c-0.498,0.307-0.997,0.612-1.479,0.944L9.5,24.339c-0.229,0.176-0.46,0.352-0.669,0.527
			l-1.066,0.947c-0.608,0.578-1.272,1.221-1.83,1.896c-0.576,0.657-0.979,1.304-1.153,1.841l-0.024,0.114
			c-0.004,0.035-0.009,0.07-0.014,0.105c0.001,0.014,0.002,0.027,0.003,0.04l0.028,0.127C4.775,29.935,4.775,29.934,4.776,29.934z"
			/>
	</g>
	<g>
		<path fill="#50B6EB" d="M2.905,30.266c0,0-0.101,0.249-0.296,0.73c-0.211,0.476-0.465,1.205-0.761,2.161
			c-0.246,0.97-0.548,2.178-0.586,3.626c-0.045,1.441,0.213,3.118,1.014,4.781c0.794,1.667,2.17,3.243,3.917,4.628
			c1.749,1.395,3.855,2.624,6.163,3.826c2.308,1.209,4.833,2.377,7.43,3.791c1.311,0.698,2.582,1.537,3.884,2.344
			c0.65,0.42,1.319,0.802,1.995,1.186c0.671,0.392,1.359,0.778,2.071,1.147c5.64,3.026,12.054,5.742,18.921,8.373
			c3.436,1.314,6.992,2.599,10.642,3.873c1.827,0.634,3.674,1.274,5.539,1.921l1.43,0.497l1.393,0.536
			c0.93,0.373,1.867,0.677,2.801,1.142c3.788,1.657,7.343,3.769,10.806,6.101c3.466,2.315,6.824,4.826,10.355,7.05
			c3.524,2.223,7.276,4.107,11.293,5.179c2.002,0.55,4.062,0.882,6.138,1.054c1.037,0.039,2.096,0.124,3.116,0.128l3.218-0.063
			c4.288-0.053,8.483-0.408,12.713-0.872c4.197-0.586,8.374-1.245,12.445-2.252c8.173-1.884,15.981-4.675,23.366-7.776
			c7.383-3.114,14.394-6.457,21.022-9.681c1.667-0.809,3.311-1.607,4.93-2.393c1.585-0.765,3.419-1.329,5.097-1.771
			c3.438-0.82,6.812-1.179,10.035-1.411c6.447-0.445,12.352-0.39,17.498-1.111c2.564-0.358,4.948-0.913,6.944-1.893
			c2-0.955,3.552-2.392,4.395-4.027c0.848-1.635,1.096-3.313,1.167-4.751c0.029-0.722-0.033-1.393-0.042-2.009
			c-0.051-0.613-0.146-1.166-0.205-1.664c-0.108-1-0.347-1.739-0.434-2.251c-0.11-0.508-0.167-0.77-0.167-0.77
			s0.066,0.26,0.194,0.764c0.104,0.508,0.37,1.241,0.514,2.24c0.077,0.498,0.193,1.051,0.265,1.666
			c0.031,0.619,0.117,1.296,0.114,2.029c-0.016,1.462-0.216,3.192-1.06,4.924c-0.833,1.734-2.438,3.297-4.493,4.343
			c-2.051,1.073-4.482,1.702-7.077,2.135c-5.207,0.874-11.141,0.975-17.525,1.497c-3.188,0.28-6.5,0.691-9.804,1.535
			c-1.663,0.479-3.216,0.96-4.853,1.776c-1.591,0.804-3.206,1.621-4.844,2.449c-6.582,3.332-13.554,6.825-20.996,9.973
			c-7.427,3.166-15.318,6.036-23.609,7.994c-4.129,1.043-8.37,1.738-12.634,2.355c-4.262,0.492-8.627,0.886-12.922,0.95
			l-3.218,0.046c-1.123-0.009-2.205-0.102-3.309-0.151c-2.191-0.193-4.373-0.557-6.49-1.151c-4.25-1.159-8.181-3.17-11.779-5.466
			c-3.607-2.3-6.954-4.833-10.362-7.134c-3.387-2.311-6.89-4.404-10.469-5.993c-0.865-0.443-1.836-0.767-2.754-1.141l-1.39-0.543
			l-1.374-0.485c-1.866-0.652-3.709-1.319-5.529-1.988c-3.64-1.336-7.189-2.683-10.621-4.058c-6.859-2.754-13.271-5.589-18.93-8.742
			c-0.711-0.383-1.406-0.788-2.088-1.201c-0.687-0.405-1.364-0.807-2.001-1.234c-1.302-0.837-2.534-1.673-3.793-2.392
			c-2.519-1.458-5.017-2.695-7.31-3.973c-2.294-1.273-4.404-2.576-6.16-4.053c-1.754-1.467-3.141-3.137-3.92-4.889
			c-0.79-1.748-1.003-3.49-0.901-4.956c0.09-1.475,0.439-2.682,0.72-3.648c0.333-0.954,0.612-1.673,0.839-2.141
			C2.795,30.51,2.905,30.266,2.905,30.266z"/>
		<path fill="#50B6EB" d="M110.206,97.323h-0.011c-0.753-0.006-1.487-0.049-2.222-0.092c-0.374-0.021-0.747-0.044-1.123-0.061
			c-2.412-0.211-4.657-0.609-6.717-1.187c-3.866-1.054-7.81-2.882-12.047-5.586c-2.19-1.397-4.299-2.889-6.339-4.331
			c-1.352-0.956-2.692-1.904-4.044-2.816c-3.751-2.56-7.124-4.491-10.315-5.908c-0.604-0.308-1.211-0.541-1.854-0.787
			c-0.293-0.112-0.585-0.225-0.872-0.342l-1.376-0.539l-1.342-0.472c-1.869-0.653-3.717-1.322-5.541-1.993
			c-3.941-1.446-7.425-2.777-10.648-4.068c-7.96-3.196-14.011-5.991-19.045-8.798c-0.714-0.384-1.423-0.796-2.12-1.219
			c-0.695-0.41-1.384-0.819-2.038-1.258l-0.968-0.627c-0.952-0.62-1.852-1.205-2.766-1.729c-1.459-0.845-2.917-1.617-4.327-2.364
			c-1.018-0.54-2.014-1.068-2.974-1.604c-2.779-1.541-4.728-2.824-6.317-4.16c-1.933-1.616-3.383-3.433-4.19-5.249
			c-0.975-2.156-1.073-4.144-0.984-5.431c0.099-1.589,0.479-2.9,0.759-3.858c0.371-1.07,0.66-1.806,0.899-2.298l0.308-0.689
			l1.84,0.783l-0.296,0.729c-0.199,0.449-0.435,1.12-0.733,2.082c-0.218,0.866-0.506,2.008-0.541,3.356
			c-0.032,1.04,0.102,2.63,0.916,4.321c0.698,1.467,1.955,2.945,3.637,4.279c1.486,1.185,3.337,2.332,6.004,3.723
			c0.948,0.496,1.932,0.984,2.941,1.486c1.456,0.725,2.963,1.474,4.505,2.313c1.034,0.55,2.057,1.193,3.047,1.816l0.886,0.556
			c0.649,0.419,1.303,0.791,1.962,1.166c0.668,0.39,1.341,0.768,2.037,1.129c4.972,2.667,10.947,5.312,18.818,8.327
			c3.176,1.215,6.648,2.479,10.615,3.863l6.968,2.418l1.423,0.547c0.293,0.118,0.573,0.224,0.854,0.329
			c0.66,0.249,1.342,0.507,2.033,0.851c3.412,1.492,6.896,3.458,10.919,6.168c1.39,0.928,2.766,1.89,4.142,2.852
			c2.011,1.406,4.09,2.86,6.188,4.182c3.917,2.47,7.521,4.124,11.018,5.059c1.833,0.504,3.837,0.848,5.963,1.024
			c0.336,0.011,0.719,0.031,1.102,0.052c0.65,0.035,1.301,0.069,1.937,0.072l3.194-0.062c3.682-0.045,7.572-0.312,12.623-0.866
			c3.927-0.549,8.16-1.201,12.314-2.229c7.198-1.659,14.788-4.186,23.218-7.728c7.385-3.115,14.444-6.482,20.973-9.658l4.931-2.394
			c1.383-0.668,3.06-1.252,5.277-1.839c3.754-0.896,7.432-1.24,10.219-1.441c2.415-0.167,4.74-0.264,6.989-0.356
			c3.733-0.155,7.26-0.302,10.442-0.747c2.839-0.396,4.949-0.969,6.643-1.8c1.798-0.859,3.196-2.133,3.946-3.588
			c0.635-1.226,0.971-2.604,1.057-4.343c0.018-0.431-0.002-0.852-0.02-1.251c-0.011-0.237-0.021-0.469-0.024-0.692
			c-0.027-0.316-0.078-0.674-0.125-1.008c-0.026-0.191-0.052-0.376-0.073-0.553c-0.065-0.612-0.182-1.106-0.284-1.542
			c-0.059-0.25-0.109-0.47-0.143-0.66l-0.158-0.728l1.946-0.458l0.194,0.765c0.043,0.2,0.092,0.379,0.147,0.583
			c0.126,0.464,0.283,1.041,0.387,1.76c0.024,0.157,0.056,0.33,0.087,0.511c0.064,0.366,0.133,0.76,0.183,1.181
			c0.016,0.273,0.033,0.486,0.05,0.705c0.036,0.457,0.073,0.939,0.07,1.447c-0.021,2.049-0.401,3.799-1.16,5.357
			c-0.937,1.948-2.691,3.653-4.939,4.796c-1.913,1.001-4.257,1.711-7.365,2.229c-3.569,0.6-7.456,0.84-11.569,1.094
			c-1.96,0.121-3.976,0.245-6.039,0.414c-2.652,0.232-6.151,0.615-9.637,1.508c-1.533,0.441-3.066,0.91-4.656,1.702l-4.838,2.446
			c-6.93,3.508-13.755,6.913-21.058,10.001c-8.609,3.67-16.386,6.303-23.77,8.047c-4.311,1.089-8.662,1.783-12.72,2.37
			c-5.197,0.602-9.335,0.905-13.051,0.961L110.206,97.323z"/>
	</g>
	
		<ellipse transform="matrix(0.9948 -0.1023 0.1023 0.9948 -3.4568 5.7622)" fill="#50B6EB" cx="54.449" cy="36.582" rx="2.486" ry="2.027"/>
	<path fill="#50B6EB" d="M23.918,18.33c1.437,0.46,2.858,0.967,4.272,1.494c1.413,0.529,2.83,1.053,4.223,1.633
		c2.79,1.153,5.557,2.37,8.284,3.684c2.708,1.351,5.393,2.77,7.942,4.448c0.635,0.424,1.27,0.848,1.884,1.31
		c0.621,0.45,1.224,0.93,1.809,1.439c0.584,0.51,1.149,1.051,1.662,1.659c0.533,0.583,0.979,1.278,1.356,2.026l-0.555-0.379
		c0.633,0.055,1.198,0.141,1.78,0.258c0.58,0.104,1.147,0.25,1.713,0.399c1.123,0.325,2.235,0.686,3.306,1.145
		c0.541,0.217,1.076,0.445,1.595,0.709c0.524,0.252,1.052,0.497,1.548,0.801c0.5,0.297,1.017,0.563,1.5,0.884l1.449,0.961
		c0.475,0.331,0.925,0.697,1.387,1.044c0.468,0.34,0.912,0.71,1.339,1.101l1.296,1.148l1.202,1.245
		c0.406,0.408,0.794,0.833,1.15,1.286l1.099,1.327c0.372,0.437,0.681,0.924,1.016,1.389l0.978,1.411l-1.115-1.304
		c-0.381-0.426-0.712-0.891-1.116-1.294l-1.185-1.229c-0.384-0.419-0.797-0.809-1.228-1.18l-1.26-1.141l-1.321-1.066
		c-0.434-0.362-0.884-0.704-1.356-1.015c-0.467-0.317-0.921-0.653-1.397-0.954l-1.45-0.868c-0.482-0.29-0.996-0.524-1.491-0.789
		c-0.494-0.269-1.013-0.485-1.522-0.72c-0.506-0.243-1.027-0.45-1.552-0.647c-1.041-0.417-2.115-0.738-3.193-1.022
		c-0.542-0.125-1.083-0.269-1.629-0.359c-0.538-0.106-1.106-0.183-1.612-0.224l-0.371-0.03l-0.184-0.349
		c-0.311-0.589-0.678-1.177-1.17-1.703c-0.46-0.541-0.995-1.038-1.543-1.52c-0.547-0.484-1.12-0.948-1.715-1.386
		c-0.586-0.449-1.202-0.866-1.816-1.284c-2.484-1.638-5.082-3.136-7.737-4.53c-2.641-1.424-5.335-2.76-8.06-4.034l-4.089-1.916
		L23.918,18.33z"/>
	<path fill="#50B6EB" d="M27.958,43.747c1.882-1.204,3.853-2.26,5.844-3.283c2.002-0.999,4.058-1.898,6.16-2.691
		c2.102-0.793,4.266-1.466,6.517-1.839c0.56-0.103,1.13-0.168,1.702-0.224c0.572-0.057,1.152-0.066,1.733-0.062
		c0.583,0.024,1.168,0.075,1.753,0.176c0.292,0.056,0.582,0.135,0.873,0.203c0.287,0.09,0.572,0.2,0.857,0.301l-0.55,0.038
		c2.291-1.353,4.657-2.462,7.077-3.491c1.211-0.506,2.438-0.976,3.68-1.4c0.616-0.225,1.24-0.429,1.87-0.617
		c0.629-0.188,1.248-0.408,1.889-0.555l1.908-0.485l1.927-0.401c0.639-0.146,1.29-0.239,1.938-0.336
		c0.65-0.087,1.292-0.223,1.948-0.27l1.96-0.159c0.653-0.052,1.311-0.027,1.964-0.044c0.654-0.013,1.307-0.021,1.959,0.04
		l1.951,0.15l-1.953,0.047c-0.649-0.011-1.297,0.046-1.943,0.108c-0.646,0.066-1.293,0.091-1.933,0.191l-1.92,0.292
		c-0.642,0.075-1.271,0.24-1.906,0.355c-0.634,0.125-1.268,0.246-1.892,0.419l-1.876,0.482l-1.854,0.564
		c-0.62,0.178-1.225,0.41-1.839,0.608c-0.614,0.2-1.223,0.414-1.824,0.65c-0.603,0.233-1.212,0.445-1.805,0.702
		c-0.594,0.254-1.198,0.482-1.788,0.744c-1.185,0.513-2.359,1.05-3.514,1.626c-1.153,0.571-2.305,1.177-3.401,1.809l-0.252,0.145
		l-0.299-0.107l-0.718-0.258c-0.252-0.059-0.499-0.13-0.754-0.182c-0.514-0.093-1.039-0.143-1.57-0.17
		c-0.534-0.006-1.069-0.002-1.609,0.036c-0.538,0.04-1.079,0.088-1.617,0.174c-1.078,0.154-2.153,0.381-3.217,0.66
		c-1.067,0.267-2.13,0.568-3.181,0.913c-2.107,0.676-4.17,1.5-6.22,2.359C31.978,41.818,29.962,42.764,27.958,43.747z"/>
	
		<ellipse transform="matrix(0.998 -0.0628 0.0628 0.998 -1.4173 6.6806)" fill="#50B6EB" cx="105.631" cy="25.901" rx="1.974" ry="1.61"/>
	<path fill="#50B6EB" d="M80.491,18.24c1.154,0.033,2.306,0.109,3.457,0.202c1.15,0.096,2.303,0.184,3.45,0.33
		c2.293,0.279,4.585,0.607,6.86,1.054c2.268,0.475,4.528,1.03,6.732,1.829c1.098,0.406,2.194,0.853,3.22,1.478
		c0.508,0.322,1.01,0.666,1.459,1.1c0.464,0.411,0.845,0.952,1.123,1.556l-0.292-0.271c1.573,0.544,3.073,1.181,4.56,1.88
		c0.741,0.351,1.475,0.718,2.187,1.124c0.361,0.194,0.717,0.398,1.067,0.611c0.35,0.213,0.71,0.409,1.052,0.637
		c1.391,0.866,2.731,1.817,3.983,2.873l0.92,0.813c0.308,0.268,0.586,0.571,0.879,0.855c0.29,0.288,0.585,0.569,0.841,0.889
		l0.794,0.928c-0.599-0.554-1.158-1.141-1.79-1.652c-0.312-0.258-0.607-0.536-0.932-0.777l-0.968-0.731
		c-0.319-0.248-0.666-0.458-0.996-0.691c-0.33-0.233-0.66-0.465-1.005-0.675c-0.676-0.442-1.369-0.854-2.072-1.251
		c-1.405-0.795-2.863-1.489-4.324-2.168c-1.465-0.663-2.974-1.274-4.482-1.769l-0.187-0.061l-0.106-0.21
		c-0.219-0.434-0.504-0.858-0.914-1.205c-0.385-0.362-0.843-0.668-1.312-0.955c-0.951-0.562-1.983-1.03-3.041-1.432
		c-2.12-0.807-4.342-1.391-6.576-1.894c-2.232-0.525-4.489-0.971-6.758-1.35C85.053,18.91,82.776,18.56,80.491,18.24z"/>
	<path fill="#50B6EB" d="M84.918,28.798c1.601-0.652,3.247-1.184,4.899-1.7c0.83-0.246,1.666-0.471,2.507-0.68
		c0.419-0.111,0.842-0.207,1.265-0.302c0.424-0.092,0.844-0.201,1.272-0.276c0.852-0.169,1.707-0.336,2.573-0.435
		c0.43-0.068,0.867-0.097,1.302-0.135c0.436-0.035,0.87-0.084,1.311-0.081c0.44-0.002,0.878-0.032,1.32-0.011l1.328,0.087
		l1.328,0.241c0.437,0.129,0.87,0.298,1.305,0.449l-0.479,0.055c0.761-0.601,1.542-1.116,2.35-1.612
		c0.802-0.498,1.627-0.958,2.462-1.397c0.417-0.221,0.846-0.418,1.268-0.628c0.42-0.215,0.862-0.385,1.292-0.579
		c0.865-0.375,1.748-0.714,2.65-0.991l1.356-0.406l1.376-0.328c0.455-0.124,0.926-0.176,1.389-0.262
		c0.465-0.074,0.926-0.172,1.398-0.2l1.407-0.11c0.47-0.016,0.941,0,1.41-0.001c0.469-0.009,0.938,0.009,1.404,0.07l1.394,0.155
		l-1.4-0.01c-0.465-0.024-0.929-0.006-1.393,0.038c-0.463,0.037-0.927,0.057-1.386,0.108l-1.373,0.212
		c-0.46,0.048-0.909,0.166-1.362,0.26c-0.45,0.105-0.907,0.177-1.348,0.32l-1.331,0.384l-1.307,0.459
		c-0.439,0.142-0.859,0.337-1.289,0.503c-0.429,0.168-0.858,0.338-1.275,0.537c-0.417,0.197-0.846,0.369-1.254,0.585
		c-0.41,0.212-0.827,0.411-1.231,0.633c-1.62,0.872-3.193,1.881-4.642,2.968l-0.202,0.152l-0.277-0.097
		c-0.379-0.132-0.75-0.286-1.135-0.409l-1.214-0.239l-1.253-0.101c-0.419-0.027-0.844-0.004-1.267-0.008
		c-0.423-0.01-0.847,0.031-1.271,0.059c-0.424,0.03-0.849,0.052-1.272,0.112c-0.848,0.096-1.698,0.193-2.544,0.329
		c-0.846,0.134-1.692,0.28-2.533,0.454c-0.844,0.164-1.68,0.364-2.52,0.548C88.247,27.89,86.582,28.335,84.918,28.798z"/>
	<ellipse fill="#50B6EB" cx="148.398" cy="16.817" rx="1.761" ry="1.436"/>
	<path fill="#50B6EB" d="M123.587,7.381c1.15,0.107,2.295,0.255,3.437,0.421c1.142,0.168,2.287,0.333,3.422,0.546
		c2.272,0.422,4.536,0.901,6.78,1.481c2.234,0.616,4.454,1.313,6.603,2.249c1.072,0.472,2.131,0.996,3.125,1.671
		c0.488,0.352,0.967,0.728,1.389,1.19c0.438,0.439,0.785,1.004,1.025,1.625l-0.376-0.318c0.469,0.091,0.885,0.201,1.312,0.335
		c0.426,0.123,0.838,0.281,1.251,0.433c0.817,0.326,1.624,0.679,2.393,1.102c0.777,0.405,1.53,0.86,2.242,1.368
		c0.352,0.261,0.719,0.5,1.056,0.778l1.012,0.832c0.33,0.285,0.639,0.594,0.959,0.889c0.325,0.291,0.629,0.602,0.919,0.928
		l0.883,0.96l0.804,1.026c0.557,0.666,0.99,1.424,1.485,2.131c0.245,0.356,0.44,0.745,0.655,1.119l0.625,1.132l-0.734-1.064
		c-0.253-0.348-0.465-0.723-0.737-1.056c-0.544-0.665-1.023-1.378-1.622-1.993l-0.857-0.952l-0.908-0.901
		c-0.297-0.305-0.608-0.596-0.938-0.865c-0.325-0.274-0.639-0.561-0.973-0.823l-1.02-0.763c-0.339-0.255-0.706-0.47-1.057-0.707
		c-0.349-0.241-0.723-0.44-1.085-0.658c-0.36-0.223-0.733-0.42-1.111-0.609c-0.746-0.396-1.526-0.723-2.312-1.023
		c-0.396-0.139-0.792-0.284-1.195-0.393c-0.396-0.12-0.816-0.22-1.194-0.288l-0.26-0.047l-0.116-0.271
		c-0.191-0.445-0.449-0.886-0.835-1.258c-0.361-0.386-0.799-0.719-1.248-1.036c-0.905-0.635-1.912-1.156-2.942-1.627
		c-2.066-0.938-4.247-1.66-6.446-2.302c-2.192-0.673-4.419-1.252-6.66-1.773C128.1,8.329,125.849,7.843,123.587,7.381z"/>
	<path fill="#50B6EB" d="M128.254,20.237c1.502-0.759,3.061-1.399,4.631-2.014c1.578-0.592,3.19-1.1,4.824-1.541
		c0.821-0.209,1.644-0.416,2.485-0.553c0.416-0.086,0.841-0.134,1.265-0.183c0.425-0.047,0.846-0.116,1.278-0.12
		c0.43-0.011,0.858-0.052,1.291-0.036l1.302,0.081l1.301,0.264c0.423,0.149,0.841,0.334,1.26,0.505l-0.479,0.025
		c1.586-1.085,3.267-1.927,4.99-2.705c0.43-0.194,0.871-0.364,1.305-0.547c0.433-0.188,0.884-0.33,1.325-0.496
		c0.887-0.318,1.789-0.606,2.707-0.825l1.379-0.319l1.395-0.241c0.462-0.095,0.936-0.118,1.403-0.173
		c0.469-0.045,0.936-0.113,1.408-0.111l1.412-0.022c0.47,0.014,0.939,0.06,1.407,0.088c0.469,0.021,0.935,0.068,1.396,0.158
		l1.382,0.242l-1.397-0.097c-0.462-0.053-0.927-0.064-1.392-0.048c-0.465,0.008-0.928-0.001-1.39,0.021l-1.384,0.125
		c-0.462,0.02-0.918,0.109-1.375,0.175c-0.456,0.077-0.916,0.12-1.365,0.235l-1.352,0.3l-1.333,0.376
		c-0.446,0.116-0.879,0.28-1.319,0.419c-0.439,0.141-0.878,0.283-1.306,0.456c-0.429,0.17-0.867,0.315-1.288,0.506
		c-0.422,0.186-0.851,0.358-1.268,0.555c-0.836,0.391-1.663,0.802-2.468,1.251c-0.805,0.442-1.602,0.928-2.354,1.416l-0.207,0.135
		l-0.273-0.11c-0.358-0.144-0.707-0.308-1.07-0.446l-1.165-0.255l-1.211-0.093c-0.405-0.022-0.817,0.013-1.226,0.016
		c-0.409-0.004-0.82,0.057-1.23,0.096c-0.41,0.041-0.821,0.08-1.229,0.158c-0.82,0.122-1.638,0.266-2.453,0.44
		c-0.41,0.076-0.812,0.188-1.219,0.281c-0.407,0.094-0.812,0.195-1.214,0.31c-0.809,0.209-1.606,0.463-2.411,0.694
		C131.416,19.105,129.833,19.658,128.254,20.237z"/>
	<ellipse fill="#50B6EB" cx="111.336" cy="62.727" rx="2.873" ry="2.343"/>
	<path fill="#50B6EB" d="M88.813,52.793c1.102,0.078,2.201,0.207,3.295,0.36c1.095,0.154,2.19,0.315,3.278,0.522
		c2.173,0.423,4.333,0.931,6.468,1.564c1.066,0.322,2.116,0.7,3.159,1.108c0.517,0.217,1.037,0.426,1.545,0.669
		c0.514,0.227,1.011,0.5,1.508,0.77c0.495,0.276,0.978,0.578,1.452,0.901c0.468,0.333,0.928,0.682,1.358,1.078
		c0.431,0.394,0.837,0.828,1.186,1.319c0.354,0.487,0.63,1.039,0.845,1.621l-0.469-0.403c0.544,0.117,0.956,0.269,1.41,0.438
		c0.444,0.165,0.869,0.358,1.297,0.547c0.842,0.4,1.661,0.838,2.453,1.313c0.397,0.236,0.796,0.469,1.179,0.724
		c0.384,0.254,0.781,0.49,1.154,0.758c0.753,0.529,1.495,1.07,2.218,1.636c1.453,1.12,2.856,2.297,4.209,3.526l1.981,1.894
		c0.647,0.644,1.281,1.301,1.913,1.959c-0.711-0.574-1.418-1.148-2.112-1.736l-2.136-1.697l-2.162-1.655
		c-0.739-0.526-1.454-1.082-2.21-1.579c-0.742-0.517-1.5-1.008-2.266-1.484c-0.375-0.251-0.768-0.471-1.15-0.708
		c-0.382-0.239-0.776-0.454-1.168-0.672c-0.781-0.444-1.588-0.828-2.392-1.206c-0.407-0.175-0.813-0.354-1.224-0.502
		c-0.399-0.149-0.85-0.296-1.198-0.368l-0.339-0.069l-0.13-0.334c-0.176-0.45-0.395-0.888-0.694-1.292
		c-0.298-0.402-0.639-0.784-1.019-1.137c-0.378-0.355-0.794-0.677-1.221-0.987c-0.435-0.302-0.884-0.589-1.349-0.855
		c-0.933-0.526-1.902-1.007-2.895-1.443c-0.997-0.431-2.019-0.808-3.044-1.183c-2.057-0.737-4.163-1.359-6.293-1.897
		c-1.064-0.275-2.129-0.554-3.202-0.799C90.971,53.254,89.895,53.016,88.813,52.793z"/>
	<path fill="#50B6EB" d="M86.995,67.217c0.94-0.385,1.894-0.732,2.855-1.061c0.96-0.331,1.924-0.653,2.895-0.955
		c1.948-0.582,3.914-1.106,5.903-1.555c0.99-0.244,1.999-0.409,3.003-0.596c1.012-0.146,2.021-0.32,3.046-0.404
		c0.51-0.053,1.022-0.101,1.538-0.113c0.516-0.012,1.028-0.065,1.548-0.043c0.52,0.017,1.038,0.02,1.559,0.051l1.564,0.197
		l-0.485,0.144c0.377-0.337,0.737-0.621,1.118-0.906c0.376-0.284,0.761-0.552,1.151-0.813c0.781-0.517,1.578-1.009,2.407-1.438
		c0.819-0.447,1.661-0.851,2.515-1.223c0.847-0.39,1.729-0.691,2.601-1.012c0.888-0.275,1.763-0.588,2.666-0.803
		c0.894-0.246,1.795-0.461,2.708-0.623c0.905-0.195,1.83-0.276,2.742-0.413c0.456-0.07,0.919-0.087,1.378-0.128l1.378-0.093
		l-1.357,0.254c-0.451,0.089-0.907,0.14-1.353,0.251c-0.893,0.216-1.795,0.375-2.67,0.646l-1.323,0.356l-1.305,0.413
		c-0.875,0.258-1.717,0.612-2.57,0.927l-1.254,0.536c-0.42,0.174-0.822,0.388-1.236,0.572c-0.821,0.385-1.629,0.8-2.411,1.255
		c-0.79,0.443-1.553,0.928-2.302,1.43c-0.372,0.254-0.74,0.515-1.094,0.788c-0.354,0.268-0.712,0.56-1.018,0.838l-0.197,0.179
		l-0.288-0.035l-1.452-0.177c-0.49-0.033-0.986-0.039-1.479-0.061c-0.493-0.026-0.993,0.022-1.489,0.028
		c-0.497,0.006-0.995,0.049-1.493,0.096c-0.997,0.064-1.992,0.2-2.989,0.319c-0.993,0.157-1.988,0.302-2.98,0.479
		c-1.987,0.339-3.965,0.754-5.93,1.229C90.917,66.189,88.959,66.701,86.995,67.217z"/>
	
		<ellipse transform="matrix(0.9921 -0.1258 0.1258 0.9921 -4.8336 20.0949)" fill="#50B6EB" cx="156.635" cy="48.306" rx="1.993" ry="1.625"/>
	<path fill="#50B6EB" d="M135.084,41.161c1.945,0.086,3.879,0.312,5.812,0.568c1.927,0.29,3.846,0.645,5.751,1.096
		c1.902,0.46,3.783,1.041,5.603,1.835c0.904,0.41,1.791,0.88,2.62,1.472c0.415,0.293,0.813,0.624,1.175,1.005
		c0.369,0.372,0.673,0.824,0.928,1.307l-0.431-0.28c0.479,0.03,0.906,0.085,1.346,0.163c0.439,0.067,0.868,0.17,1.299,0.268
		c0.854,0.216,1.7,0.468,2.515,0.796c0.411,0.154,0.819,0.317,1.214,0.507c0.399,0.183,0.802,0.355,1.184,0.571
		c0.785,0.392,1.52,0.869,2.256,1.339c0.364,0.242,0.709,0.51,1.063,0.764c0.358,0.249,0.699,0.52,1.027,0.808l0.995,0.844
		l0.931,0.913c0.635,0.593,1.158,1.294,1.736,1.935c0.287,0.323,0.526,0.687,0.788,1.03l0.757,1.049l-0.867-0.959
		c-0.293-0.315-0.553-0.657-0.866-0.953c-0.626-0.589-1.193-1.233-1.865-1.765l-0.967-0.839l-1.016-0.777
		c-0.334-0.265-0.679-0.513-1.041-0.737c-0.358-0.23-0.706-0.474-1.07-0.691l-1.108-0.625c-0.368-0.21-0.76-0.373-1.135-0.57
		c-0.374-0.199-0.768-0.354-1.156-0.521c-0.385-0.174-0.781-0.32-1.18-0.458c-0.792-0.293-1.605-0.516-2.42-0.72
		c-0.409-0.089-0.82-0.185-1.232-0.244c-0.407-0.07-0.837-0.118-1.217-0.14l-0.286-0.017l-0.145-0.264
		c-0.205-0.372-0.448-0.731-0.762-1.051c-0.303-0.326-0.652-0.624-1.028-0.892c-0.747-0.543-1.58-0.997-2.44-1.396
		c-0.865-0.394-1.753-0.75-2.657-1.069c-0.905-0.32-1.828-0.591-2.751-0.869c-1.852-0.537-3.737-0.984-5.635-1.367
		C138.914,41.813,137.003,41.481,135.084,41.161z"/>
	<path fill="#50B6EB" d="M136.47,54.753c1.395-0.942,2.861-1.773,4.34-2.581c1.491-0.786,3.026-1.493,4.593-2.135
		c0.788-0.311,1.578-0.62,2.395-0.861c0.402-0.138,0.817-0.239,1.232-0.341c0.415-0.1,0.825-0.222,1.253-0.28
		c0.425-0.065,0.845-0.16,1.276-0.198l1.302-0.084l1.323,0.098c0.438,0.094,0.876,0.226,1.314,0.342l-0.472,0.085
		c1.438-1.276,2.998-2.323,4.609-3.311c0.402-0.247,0.818-0.471,1.226-0.707c0.406-0.241,0.836-0.438,1.252-0.659
		c0.84-0.427,1.698-0.826,2.582-1.159l1.328-0.49l1.353-0.414c0.446-0.152,0.914-0.234,1.37-0.349
		c0.46-0.104,0.914-0.23,1.383-0.287l1.398-0.199c0.468-0.045,0.939-0.059,1.407-0.09c0.468-0.038,0.936-0.05,1.406-0.019
		l1.401,0.067l-1.398,0.079c-0.465,0.005-0.927,0.053-1.387,0.127c-0.46,0.067-0.921,0.116-1.377,0.196l-1.357,0.298
		c-0.456,0.078-0.897,0.224-1.342,0.346c-0.442,0.134-0.894,0.234-1.324,0.405l-1.303,0.468l-1.275,0.541
		c-0.428,0.171-0.837,0.388-1.255,0.581c-0.418,0.195-0.835,0.391-1.239,0.616c-0.404,0.223-0.821,0.422-1.214,0.664
		c-0.396,0.238-0.799,0.462-1.188,0.71c-0.78,0.493-1.548,1.005-2.291,1.551c-0.743,0.54-1.472,1.122-2.157,1.701l-0.188,0.159
		l-0.284-0.074c-0.374-0.098-0.74-0.217-1.118-0.308l-1.187-0.107l-1.213,0.06c-0.405,0.03-0.809,0.115-1.214,0.17
		c-0.407,0.047-0.806,0.16-1.208,0.25c-0.402,0.092-0.805,0.183-1.2,0.312c-0.798,0.224-1.592,0.47-2.378,0.745
		c-0.397,0.127-0.782,0.289-1.174,0.432c-0.392,0.144-0.781,0.296-1.165,0.46c-0.777,0.309-1.535,0.661-2.305,0.992
		C139.465,53.232,137.964,53.98,136.47,54.753z"/>
	<ellipse fill="#50B6EB" cx="191.782" cy="38.016" rx="1.788" ry="1.459"/>
	<path fill="#50B6EB" d="M173.652,32.099c1.628,0.166,3.241,0.438,4.855,0.718c1.606,0.315,3.206,0.671,4.797,1.077
		c0.794,0.21,1.584,0.435,2.364,0.701c0.786,0.244,1.557,0.545,2.328,0.844l1.143,0.496l1.117,0.577
		c0.372,0.195,0.717,0.459,1.076,0.687c0.355,0.24,0.659,0.582,0.983,0.875l-0.214-0.136c0.762,0.249,1.446,0.549,2.142,0.873
		c0.688,0.327,1.364,0.677,2.02,1.059c0.659,0.376,1.306,0.774,1.933,1.2c0.639,0.408,1.229,0.887,1.833,1.341
		c0.58,0.486,1.178,0.949,1.729,1.467c0.566,0.5,1.115,1.017,1.638,1.561c0.539,0.527,1.016,1.114,1.524,1.667
		c0.494,0.567,0.949,1.167,1.414,1.755l-0.795-0.797c-0.266-0.264-0.513-0.545-0.79-0.797c-0.552-0.506-1.073-1.041-1.651-1.515
		c-0.559-0.494-1.117-0.986-1.704-1.444c-0.569-0.48-1.182-0.903-1.775-1.349c-1.223-0.843-2.463-1.656-3.758-2.37
		c-0.645-0.361-1.308-0.689-1.979-0.994c-0.667-0.298-1.365-0.585-2.032-0.79l-0.08-0.024l-0.134-0.112
		c-0.291-0.241-0.535-0.517-0.848-0.744c-0.327-0.212-0.627-0.457-0.975-0.646l-1.048-0.565l-1.094-0.498
		c-0.745-0.303-1.491-0.61-2.26-0.864c-0.761-0.274-1.539-0.503-2.308-0.764c-1.55-0.484-3.118-0.923-4.697-1.321
		C176.834,32.839,175.244,32.476,173.652,32.099z"/>
	<path fill="#50B6EB" d="M177.084,41.161c1.18-0.476,2.388-0.872,3.599-1.263c1.212-0.389,2.445-0.713,3.684-1.013
		c1.241-0.294,2.491-0.572,3.767-0.723c0.317-0.048,0.637-0.081,0.958-0.109c0.321-0.027,0.64-0.07,0.964-0.076
		c0.645-0.043,1.297-0.033,1.951-0.005L191.826,38c0.799-0.315,1.586-0.582,2.391-0.828c0.806-0.234,1.62-0.438,2.436-0.628
		c0.818-0.182,1.64-0.346,2.467-0.485c0.828-0.129,1.655-0.265,2.49-0.342c0.833-0.089,1.672-0.118,2.508-0.157l1.256-0.009
		c0.418-0.006,0.836,0,1.254,0.028c0.836,0.022,1.668,0.114,2.496,0.225c0.831,0.076,1.646,0.28,2.461,0.43
		c-0.833-0.046-1.653-0.173-2.483-0.182l-1.24-0.042l-1.24,0.017c-0.413-0.005-0.825,0.01-1.237,0.038l-1.235,0.074
		c-0.821,0.083-1.642,0.154-2.456,0.285c-0.819,0.091-1.63,0.238-2.441,0.379c-0.81,0.151-1.614,0.327-2.415,0.519
		c-0.799,0.2-1.594,0.415-2.379,0.657c-0.786,0.23-1.579,0.481-2.331,0.764l-0.089,0.033l-0.093-0.005
		c-0.614-0.035-1.23-0.057-1.853-0.026c-0.31-0.001-0.622,0.036-0.934,0.057c-0.312,0.021-0.623,0.047-0.935,0.09
		c-1.245,0.143-2.492,0.336-3.734,0.563c-1.244,0.222-2.475,0.512-3.711,0.789C179.542,40.523,178.314,40.84,177.084,41.161z"/>
</g>
</svg>