<!-- Generator: Adobe Illustrator 18.1.1, SVG Export Plug-In  -->
<svg version="1.1"
	 xmlns="http://www.w3.org/2000/svg" xmlns:xlink="http://www.w3.org/1999/xlink" xmlns:a="http://ns.adobe.com/AdobeSVGViewerExtensions/3.0/"
	 x="0px" y="0px" width="124.017px" height="124.019px" viewBox="0 0 124.017 124.019" enable-background="new 0 0 124.017 124.019"
	 xml:space="preserve">
<defs>
</defs>
<path fill="#243284" d="M65.744,124.01c-1.131,0,17.731,0.009,20.423,0c7.702-0.026-0.545-15.936-0.545-23.639
	c0-7.949,0-15.898,0-23.846c0-0.492,0-0.493,0.487-0.493c5.014,0,10.027,0,15.041,0c0.118,0,0.236-0.004,0.353-0.002
	c0.165,0.003,0.246-0.061,0.269-0.24c0.254-2.035,0.512-4.07,0.775-6.104c0.247-1.907,0.504-3.813,0.75-5.72
	c0.246-1.907,0.484-3.815,0.727-5.723c0.04-0.315,0.083-0.629,0.131-0.995h-0.477c-5.871,0-11.741,0-17.612,0
	c-0.443,0-0.445,0-0.444-0.431c0.005-4.242-0.001-8.484,0.024-12.727c0.007-1.092,0.187-2.171,0.525-3.216
	c0.719-2.219,2.282-3.527,4.483-4.147c1.466-0.413,2.971-0.5,4.481-0.506c3.064-0.013,6.128-0.004,9.191-0.004h0.441V19.411
	c-0.59-0.066-1.17-0.149-1.753-0.192c-1.889-0.137-3.776-0.308-5.668-0.375c-2.675-0.094-5.353-0.18-8.028-0.136
	c-4.452,0.074-8.692,1.056-12.555,3.36c-4.315,2.573-7.204,6.315-8.896,11.012c-0.735,2.039-1.231,4.139-1.416,6.298
	c-0.136,1.587-0.232,3.181-0.244,4.773c-0.033,4.221-0.011,8.442-0.011,12.662c0,0.432-0.001,0.432-0.44,0.432
	c-5.067,0-10.134,0-15.201,0c-0.149,0-0.299,0-0.489,0v18.785h0.519c5.046,0,10.091,0,15.137,0c0.474,0,0.474,0.001,0.474,0.469
	c0,15.683,0,31.367,0,47.05C66.197,124.009,66.196,124.01,65.744,124.01z"/>
<path fill="#FFFFFF" d="M50.067,57.247c0,6.272,0,12.502,0,18.785c0.183,0,0.351,0,0.519,0c5.046,0,10.091,0,15.137,0
	c0.474,0,0.474,0.001,0.474,0.469c0,15.683,0,31.367,0,47.05c0,0.457-0.001,0.458-0.453,0.458c-19.604,0-39.208-0.01-58.813,0.009
	c-3.461,0.003-6.251-2.448-6.804-5.533c-0.096-0.533-0.116-1.085-0.116-1.628C0.006,92.755,0.007,68.651,0.007,44.548
	C0.007,32.046,0.013,19.544,0,7.042C-0.002,5.325,0.458,3.786,1.563,2.47c1.299-1.547,2.967-2.381,4.998-2.454
	c0.214-0.008,0.428-0.009,0.643-0.009c36.53,0,73.061,0.002,109.591-0.008c1.485,0,2.876,0.266,4.116,1.102
	c2.039,1.376,3.065,3.311,3.1,5.771c0.002,0.107,0.001,0.214,0.001,0.321c0,36.541-0.002,73.082,0.006,109.623
	c0,1.541-0.305,2.98-1.21,4.245c-1.407,1.966-3.33,2.949-5.754,2.949c-8.742-0.002-17.483-0.001-26.225-0.001
	c-1.553,0-3.107,0-4.66,0c-0.545,0-0.545,0-0.545-0.531c0-7.702,0-15.405,0-23.107c0-7.949,0-15.898,0-23.846
	c0-0.492,0-0.493,0.487-0.493c5.014,0,10.027,0,15.041,0c0.118,0,0.236-0.004,0.353-0.002c0.165,0.003,0.246-0.061,0.269-0.24
	c0.254-2.035,0.512-4.07,0.775-6.105c0.247-1.907,0.504-3.813,0.75-5.72c0.246-1.907,0.484-3.815,0.727-5.723
	c0.04-0.315,0.083-0.629,0.131-0.995c-0.185,0-0.331,0-0.477,0c-5.871,0-11.741,0-17.612,0c-0.443,0-0.445,0-0.444-0.431
	c0.005-4.242-0.001-8.484,0.024-12.727c0.007-1.092,0.187-2.171,0.525-3.216c0.719-2.219,2.282-3.527,4.483-4.147
	c1.466-0.413,2.971-0.5,4.481-0.506c3.064-0.013,6.128-0.004,9.191-0.004c0.138,0,0.276,0,0.441,0c0-5.605,0-11.189,0-16.805
	c-0.59-0.066-1.17-0.149-1.754-0.192c-1.889-0.137-3.776-0.308-5.668-0.375c-2.675-0.094-5.353-0.18-8.028-0.136
	c-4.452,0.074-8.692,1.056-12.555,3.36c-4.315,2.573-7.204,6.315-8.896,11.012c-0.735,2.039-1.231,4.139-1.416,6.298
	c-0.136,1.587-0.232,3.181-0.244,4.773c-0.033,4.221-0.011,8.442-0.011,12.662c0,0.432-0.001,0.432-0.44,0.432
	c-5.067,0-10.134,0-15.201,0C50.406,57.247,50.257,57.247,50.067,57.247z"/>
</svg>