<!-- Generator: Adobe Illustrator 18.1.1, SVG Export Plug-In  -->
<svg version="1.1"
	 xmlns="http://www.w3.org/2000/svg" xmlns:xlink="http://www.w3.org/1999/xlink" xmlns:a="http://ns.adobe.com/AdobeSVGViewerExtensions/3.0/"
	 x="0px" y="0px" width="162.812px" height="171.434px" viewBox="0 0 162.812 171.434" enable-background="new 0 0 162.812 171.434"
	 xml:space="preserve">
<defs>
</defs>
<g>
	<path fill="#50B6EB" d="M61.73,0c9.212,0,17.843,2.489,25.257,6.832c3.707,2.171,6.954,4.78,9.369,7.637
		C48.92,12.474,7.02,62.134,25.642,108.689c3.104,6.207,4.656,10.863,7.759,17.07c18.622,26.382,54.315,34.141,82.248,15.519
		c6.207-4.656,10.863-7.759,15.519-13.967c3.104-6.207,7.759-10.863,7.759-18.622c0-6.207,0-13.967,0-20.174
		c0-7.759-4.656-12.415-7.759-18.622c-6.207-9.311-13.967-15.519-24.83-18.622c-7.759-1.552-15.519-1.552-23.278,0
		c-9.311,3.104-18.622,9.311-23.278,20.174c-3.104,7.759-4.656,15.519-3.104,23.278c4.656,13.967,17.07,24.83,32.589,21.726
		c7.759-1.552,12.415-9.311,15.519-15.519c1.552-4.656-1.552-9.311-4.656-13.967c-1.552-1.552-4.656-1.552-7.759-1.552
		c-6.207,1.552-6.207,6.207-4.656,10.863c-6.207,1.552-9.311-3.104-10.863-7.759c-1.552-10.863,7.759-18.622,17.07-18.622
		c10.863,0,18.622,7.759,23.278,18.622c1.552,3.104,1.552,7.759,1.552,10.863c-3.104,18.622-20.174,32.589-38.796,29.485
		c-10.863-1.552-20.174-4.656-26.382-13.967S42.712,94.723,44.264,83.86c1.552-15.519,9.311-31.037,23.278-38.796
		c20.174-10.863,45.004-9.311,62.074,6.207c6.207,6.207,10.863,12.415,15.519,20.174c3.104,4.656,3.104,10.863,4.656,15.519
		c3.104,24.83-7.759,49.659-29.485,63.626c-13.967,7.759-29.485,10.863-46.556,9.311c-20.174-3.104-34.141-13.967-46.556-27.933
		c-15.519-20.174-15.519-45.004-13.782-68.094C12.301,59.137,34.093,0,61.73,0z"/>
	<rect x="4.5" y="0" fill="#50B6EB" width="153.812" height="30.87"/>
	<rect x="0" y="0" fill="#50B6EB" width="9" height="166.934"/>
	<rect x="153.812" y="0" fill="#50B6EB" width="9" height="166.934"/>
	<rect x="0" y="162.434" fill="#50B6EB" width="162.812" height="9"/>
</g>
</svg>